<svg xmlns="http://www.w3.org/2000/svg" width="48.855" height="56.276" viewBox="0 0 48.855 56.276">
  <g id="icon_tel" transform="translate(0 -0.096)">
    <path id="パス_6" data-name="パス 6" d="M38.536,84.988A36.353,36.353,0,0,0,30.3,80.107C29,79.76,27.436,81.2,27,82.994s-1.243,1.623-1.243,1.623-3.117-1.32-8.82-7.868S10.086,66.61,10.086,66.61s-.152-.933,1.4-1.44a3.684,3.684,0,0,0,2.493-3.806,46.509,46.509,0,0,0-4.264-9.478c-1.354-1.936-3.97-.938-4.545-.455A12.85,12.85,0,0,0,.342,64.572,44.866,44.866,0,0,0,10.416,84.3c4.317,4.957,10.025,9.459,17.148,11.539s10.966-4.944,11.381-5.61S40.218,86.542,38.536,84.988Z" transform="translate(0 -39.85)" fill="#ffa07a"/>
    <path id="パス_7" data-name="パス 7" d="M122.466,89.862a15.72,15.72,0,0,1,4.188,3.531,18,18,0,0,1,3.063,4.827c.487,1.144.846,1.374,1.137,1.3.48-.128.64-.277.684-1.43a10.981,10.981,0,0,0-2.965-6.9c-2.594-2.99-5.138-3.46-5.989-3.417-1,.049-1.129.234-1.24.789C121.276,88.887,121.473,89.3,122.466,89.862Z" transform="translate(-98.895 -68.979)" fill="#ffa07a"/>
    <path id="パス_8" data-name="パス 8" d="M128.736,43.471a1.428,1.428,0,0,0-1.568,1.209c-.075.683.362,1.237,1.27,1.537a20.31,20.31,0,0,1,8.6,5.835,25.229,25.229,0,0,1,5.063,9.911c.259,1.046.739,1.549,1.332,1.463.3-.041,1.051-.4,1.049-1.806a20.921,20.921,0,0,0-5.151-12.213C134.769,44.151,129.7,43.47,128.736,43.471Z" transform="translate(-103.646 -34.13)" fill="#ffa07a"/>
    <path id="パス_9" data-name="パス 9" d="M152.352,8.313C145.819.782,138.926.133,137.742.1,136.3.055,135.722.8,135.723,1.57a1.843,1.843,0,0,0,1.445,1.581c1.3.383,6.44,1.317,12.479,8.279s6.849,12.891,7.184,14.387c.222.994.805,1.665,1.371,1.665.666,0,1.315-.66,1.277-2.326A28.4,28.4,0,0,0,152.352,8.313Z" transform="translate(-110.625 0)" fill="#ffa07a"/>
  </g>
</svg>
