<svg version="1.1" id="logo_sunmarine" xmlns="http://www.w3.org/2000/svg" xmlns:xlink="http://www.w3.org/1999/xlink" x="0px"
	 y="0px" viewBox="0 0 172.5 46.2" enable-background="new 0 0 172.5 46.2" xml:space="preserve">
<g>
	<path fill="#231815" d="M3.3,5.8c0.7-1.2,1.1-2,1.5-3.4C5.2,1.3,5.4,0.7,5.4,0C6.7,0.3,6.9,0.3,7,0.4c0.1,0,0.2,0.1,0.2,0.2
		c0,0.1-0.1,0.2-0.5,0.2C6.2,2,5.8,2.7,5.4,3.5c0.7,0.1,0.8,0.1,0.8,0.2c0,0.1-0.1,0.2-0.4,0.3v2.5c0,0.8,0,0.8,0,3.4
		c0,0.1,0,0.2-0.1,0.2c-0.1,0.1-0.4,0.1-0.8,0.1c-0.3,0-0.4-0.1-0.4-0.3v0c0.1-1.1,0.1-2.3,0.1-3.2V4.4C4.3,5,4,5.3,3.3,5.8L3.3,5.8
		z M9,5.9H7.4C7,5.9,6.9,5.9,6.6,6L6.5,5.6c0.3,0.1,0.6,0.1,0.8,0.1H9V2.8H7.2c-0.3,0-0.4,0-0.7,0.1L6.4,2.5C6.7,2.6,7,2.6,7.2,2.6
		h4.2l0.8-1c0.5,0.4,0.7,0.5,1.2,1c0,0,0.1,0.1,0.1,0.1c0,0-0.1,0.1-0.1,0.1h-3.3v2.8h1c0.4-0.4,0.5-0.5,0.8-0.9
		c0.5,0.4,0.7,0.5,1.2,0.9c0,0,0.1,0.1,0.1,0.1c0,0-0.1,0.1-0.2,0.1h-2.9v3.6h1.3c0.4-0.4,0.4-0.4,0.9-1c0.5,0.4,0.7,0.6,1.3,1
		c0,0,0.1,0.1,0.1,0.1c0,0-0.1,0.1-0.1,0.1H7c-0.3,0-0.5,0-0.8,0.1L6.1,9.4C6.4,9.4,6.7,9.5,7,9.5h2V5.9z M8,0.2
		c1.5,0.3,2,0.4,2.3,0.7c0.2,0.2,0.3,0.4,0.3,0.6c0,0.4-0.3,0.9-0.6,0.9C9.9,2.3,9.8,2.3,9.6,2C9.5,1.7,9.2,1.3,8.9,1.1
		C8.6,0.7,8.4,0.5,8,0.2L8,0.2z"/>
	<path fill="#231815" d="M22.6,1.6c0.3-0.3,0.4-0.4,0.7-0.7c0.6,0.4,0.7,0.5,1.3,1c0.1,0.1,0.1,0.2,0.1,0.2c0,0,0,0.1-0.1,0.1
		c0,0-0.1,0-0.3,0c-0.2,0-0.4,0-0.4,0c-0.8,0.5-1,0.5-1.5,0.8c0.1,0.1,0.1,0.1,0.1,0.1c0,0.1-0.1,0.1-0.2,0.1c0,0-0.2,0-0.5,0
		c-1,0.4-1.7,0.6-2.5,0.8v1.8l2.8-0.3c0.3-0.5,0.4-0.6,0.7-1.1c0.6,0.4,0.8,0.5,1.5,0.9c0,0,0.1,0.1,0.1,0.1c0,0,0,0.1-0.1,0.1
		l-5,0.6v2.5c0,0.1,0,0.1,0.1,0.2c0.1,0.1,0.6,0.1,1.8,0.1c1.1,0,1.5,0,1.6-0.3c0.1-0.2,0.5-1,0.9-2.2l0.1,0l-0.1,1.7
		c0,0.1,0,0.1,0,0.1c0,0.2,0,0.2,0.2,0.3c0.3,0.1,0.4,0.2,0.4,0.5c0,0.3-0.2,0.5-0.5,0.6C23.6,9.9,23.2,9.9,22,10
		c-0.3,0-0.9,0-1.3,0c-1.4,0-2-0.1-2.3-0.3c-0.2-0.1-0.3-0.3-0.3-0.7c0-0.4,0-0.4,0-1.2V6.3l-2.2,0.2c-0.4,0-0.8,0.1-1.2,0.2
		l-0.1-0.4c0.1,0,0.1,0,0.2,0c0.3,0,0.9,0,1.1,0l2.2-0.3V4.4c-0.9,0.1-1.8,0.2-3,0.3l0-0.1c2.5-0.5,5.1-1.5,6.1-2.3
		c0.5,0.3,0.7,0.4,1.1,0.7c0.2-0.4,0.3-0.7,0.4-1.1h-6.6c0,0.1,0,0.1,0,0.2c0,0.5-0.1,0.8-0.2,1.1c-0.2,0.4-0.6,0.6-0.9,0.6
		c-0.3,0-0.5-0.4-0.5-0.8c0-0.3,0.1-0.4,0.4-0.5c0.5-0.2,0.6-0.4,0.8-0.8c0.1-0.2,0.2-0.4,0.2-0.8H16c0.1,0.3,0.1,0.5,0.1,0.8h2.7
		V0.9c0-0.3,0-0.4,0-0.8c1.2,0.1,1.5,0.1,1.7,0.2c0.1,0,0.1,0.1,0.1,0.1c0,0.1-0.1,0.2-0.5,0.3v0.9H22.6z"/>
	<path fill="#231815" d="M32.7,7.6c0.4-0.4,0.5-0.5,0.8-0.8c0.5,0.4,0.7,0.5,1.2,0.9c0,0,0.1,0.1,0.1,0.1c0,0-0.1,0.1-0.1,0.1h-3.5
		v1.7h2.3c0.4-0.4,0.5-0.6,0.9-1c0.6,0.4,0.7,0.6,1.3,1.1c0.1,0.1,0.1,0.1,0.1,0.1s-0.1,0.1-0.1,0.1h-9.3c-0.3,0-0.4,0-0.6,0.1
		l-0.1-0.4c0.3,0.1,0.4,0.1,0.7,0.1h3.6V7.8h-2.7c-0.3,0-0.4,0-0.6,0.1l-0.1-0.4c0.3,0.1,0.5,0.1,0.7,0.1h2.7V7.2c0-0.3,0-0.5,0-0.7
		c-0.2,0-0.4,0-0.6,0c-0.3,0-0.4,0-0.4-0.2c0,0,0,0,0,0c0-1.5,0-1.5,0-2.4V3.4h-1c-0.1,1.1-0.4,1.9-0.9,2.6
		c-0.3,0.4-0.7,0.6-1.5,1.2L25.5,7c1-1.2,1.3-1.9,1.4-3.6h-0.8c-0.2,0-0.4,0-0.6,0.1l-0.1-0.4c0.2,0.1,0.4,0.1,0.6,0.1h0.8
		c0-0.5,0-0.7,0-1.3V1.1h-0.5c-0.2,0-0.4,0-0.6,0.1l-0.1-0.4c0.2,0.1,0.4,0.1,0.6,0.1h3.2c0.3-0.3,0.4-0.4,0.7-0.7
		c0.4,0.3,0.6,0.4,1,0.8c0.1,0,0.1,0.1,0.1,0.1c0,0-0.1,0.1-0.1,0.1h-1.1v2.1h0c0.3-0.3,0.3-0.4,0.6-0.7c0.4,0.4,0.5,0.4,0.9,0.8
		l0-1.5c0-0.5,0-0.7,0-1.2c1.5,0.1,1.6,0.2,1.6,0.3c0,0.1-0.1,0.2-0.4,0.3v2.2c0,0.4,0,0.6,0,1.1c0,0.2-0.2,0.3-0.7,0.3
		c-0.4,0-0.4,0-0.4-0.2c0-0.4,0-0.4,0-1.1l-0.1,0h-1.4v0.4c0,1.7,0,1.7,0,2.4v0.1c0.6,0.1,1,0.1,1.2,0.1c0.2,0,0.2,0.1,0.2,0.2
		c0,0.1-0.1,0.2-0.4,0.3v0.8H32.7z M28.1,1.1c0,1.4,0,1.4-0.1,2.1h0.9V1.1H28.1z M32.1,5.4c1,0.1,1,0.1,1.5,0.1c0.2,0,0.2,0,0.2-0.2
		V1.8c0-0.7,0-1-0.1-1.5c1.7,0.2,1.7,0.2,1.7,0.3c0,0.1-0.1,0.2-0.4,0.3v2.9c0,0.1,0,0.2,0,0.5c0,0.2,0,0.2,0,1.1
		c0,0.6-0.1,0.8-0.4,1c-0.2,0.1-0.7,0.3-1,0.3c-0.1,0-0.2,0-0.2-0.2c0-0.2-0.1-0.4-0.3-0.5c-0.2-0.1-0.4-0.2-1.1-0.4L32.1,5.4z"/>
	<path fill="#231815" d="M44.6,1.9c0.4-0.4,0.5-0.5,0.9-0.9c0.6,0.4,0.7,0.5,1.3,1C46.8,2,46.8,2,46.8,2c0,0.1-0.1,0.1-0.2,0.1H41
		c-0.3,0.5-0.5,0.9-0.9,1.4c0.1,0.1,0.1,0.1,0.2,0.1h3.5c0.3-0.3,0.3-0.4,0.6-0.7c0.4,0.3,0.6,0.4,1,0.7c0.1,0.1,0.1,0.1,0.1,0.2
		c0,0.1-0.1,0.2-0.4,0.3v2.4c0,0.6,0,1.2,0,2.4c0,0.6-0.2,0.9-0.8,1.1c-0.2,0.1-0.5,0.1-0.7,0.1c-0.1,0-0.2,0-0.2-0.2
		c0-0.3-0.1-0.5-0.4-0.6c-0.2-0.1-0.4-0.2-1.2-0.4V8.8c1.2,0,1.2,0,1.8,0.1c0.2,0,0.2,0,0.2-0.2V7.1h-3.6V10c0,0.2-0.2,0.3-0.8,0.3
		c-0.4,0-0.5,0-0.5-0.2c0-1.2,0.1-2.4,0.1-3V4.7c-0.7,0.7-1.3,1.2-2.3,1.8l-0.1-0.1c1.3-1.3,2.3-2.7,3-4.3h-2c-0.3,0-0.5,0-0.8,0.1
		l0-0.4c0.3,0.1,0.6,0.1,0.9,0.1h2.1c0.3-0.8,0.4-1.2,0.5-1.9c1.7,0.4,1.8,0.4,1.8,0.5c0,0.1-0.1,0.2-0.6,0.2
		c-0.2,0.5-0.3,0.7-0.4,1.1H44.6z M43.9,5.2V3.9h-3.6v1.4H43.9z M40.3,6.9h3.6V5.5h-3.6V6.9z"/>
	<path fill="#231815" d="M50.7,4.9c1.2,0.5,1.6,0.8,1.6,1.3C52.3,6.6,52,7,51.7,7c-0.1,0-0.2-0.1-0.3-0.4c-0.2-0.8-0.4-1.3-0.7-1.5
		V6l0,4c0,0.2-0.1,0.3-0.8,0.3c-0.4,0-0.4,0-0.4-0.2c0-1.5,0.1-2.5,0.1-3l0-0.9C49,7.3,48.5,8,47.7,8.7l-0.1-0.1
		c0.8-1.4,1.3-2.7,1.8-4.4h-1c-0.2,0-0.3,0-0.5,0.1l-0.1-0.4C48,3.9,48.1,4,48.4,4h1.3V1.6c0-0.5,0-0.8-0.1-1.5
		c1.4,0.1,1.7,0.1,1.7,0.3c0,0.1-0.1,0.2-0.4,0.3V4h0.4c0.2-0.3,0.3-0.4,0.6-0.7c0.4,0.3,0.5,0.4,0.8,0.8c0,0,0.1,0.1,0.1,0.1
		c0,0-0.1,0.1-0.1,0.1h-1.7V4.9z M48,0.8c0.8,0.7,1.3,1.4,1.3,1.9c0,0.4-0.4,0.9-0.7,0.9c-0.1,0-0.2,0-0.2-0.2c0-0.1,0-0.1,0-0.7
		C48.3,2.1,48.2,1.5,48,0.8L48,0.8z M50.9,3.5c0.3-0.9,0.6-1.8,0.6-2.7c0.5,0.2,1,0.4,1.2,0.5c0.1,0,0.1,0.1,0.1,0.1
		c0,0.1-0.1,0.1-0.4,0.2C51.8,2.7,51.7,2.9,50.9,3.5L50.9,3.5z M56.7,6.4c0.2-0.4,0.3-0.6,0.5-1c0.5,0.3,0.6,0.5,1,0.8
		c0.1,0,0.1,0.1,0.1,0.1s0,0.1-0.1,0.1l-1.6,0.3c0,2,0,2,0.1,3.3c0,0.2-0.2,0.3-0.8,0.3c-0.4,0-0.5,0-0.5-0.2c0-0.6,0-0.6,0-3.1
		l-2.9,0.6c-0.2,0-0.3,0.1-0.5,0.2l-0.2-0.4c0.1,0,0.1,0,0.2,0c0.1,0,0.2,0,0.5-0.1l2.9-0.6l0-1.2V4c0-2.4,0-3.2-0.1-3.9
		c1.4,0.1,1.5,0.1,1.6,0.2C57,0.3,57,0.4,57,0.4c0,0.1-0.1,0.2-0.5,0.3c0,2.4,0,2.4,0,2.9c0,0.7,0,1,0,2.9L56.7,6.4z M52.7,3.9
		c0.9,0.3,1.1,0.4,1.5,0.6c0.4,0.2,0.5,0.4,0.5,0.7c0,0.3-0.1,0.5-0.3,0.7C54.3,6,54.1,6.2,54,6.2c-0.2,0-0.3-0.1-0.4-0.5
		C53.4,5.1,53.2,4.6,52.7,3.9L52.7,3.9z M53,1c1.4,0.5,1.9,0.9,1.9,1.5c0,0.4-0.4,0.9-0.7,0.9c-0.1,0-0.2,0-0.2-0.1
		c-0.1-0.1-0.1-0.1-0.2-0.4C53.7,2.2,53.4,1.7,53,1L53,1z"/>
	<path fill="#231815" d="M64.1,1.9c0.3-0.4,0.4-0.5,0.7-0.8c0.4,0.4,0.5,0.4,0.9,0.8c0.5-0.7,0.7-1,0.9-1.5c1.5,0.6,1.6,0.6,1.6,0.8
		S68,1.4,67.6,1.4c-0.9,1.1-1.6,1.9-2.3,2.7h1.5l0.9-1c0.5,0.5,0.7,0.6,1.2,1.1c0,0,0.1,0.1,0.1,0.1c0,0,0,0.1-0.1,0.1H65
		c-0.9,0.9-1.4,1.2-2.4,1.8V7c0.6-0.2,0.9-0.4,1.5-0.6c1-0.5,1.5-0.8,2-1.3c1.2,0.9,1.4,0.9,1.4,1.1c0,0.1-0.1,0.1-0.2,0.1
		c-0.1,0-0.3,0-0.4-0.1c-1.4,0.6-2.2,0.8-4.2,1.2v1.2c0,0.2,0,0.2,0.1,0.3c0.1,0.1,0.2,0.1,1.6,0.1c1.8,0,2,0,2.2-0.2
		c0.2-0.2,0.5-0.9,1-2.1l0.1,0l-0.1,1.8c0,0.1,0,0.1,0,0.1c0,0.1,0,0.1,0.3,0.2C67.9,8.8,68,8.9,68,9.1c0,0.4-0.3,0.6-0.8,0.7
		c-0.5,0.1-1.5,0.1-3.1,0.1c-1.7,0-2.1,0-2.4-0.2c-0.2-0.1-0.3-0.3-0.3-0.7c0-0.2,0-0.4,0-0.5c0-0.3,0-0.6,0-0.6V6.8
		c-1.1,0.5-1.7,0.8-2.9,1.1l-0.1-0.1c1.2-0.6,1.9-1.1,2.9-1.7c0-0.3,0-0.5,0-0.8c0.4,0.1,0.6,0.2,0.9,0.2C63,4.9,63,4.9,63.6,4.3
		h-4.1c-0.3,0-0.5,0-0.7,0.1l-0.1-0.4C59,4,59.2,4,59.5,4h2.9V2.2h-2.1c-0.3,0-0.4,0-0.6,0.1l-0.1-0.4c0.3,0.1,0.4,0.1,0.7,0.1h2.1
		V1.2c0-0.4,0-0.7-0.1-1.2c0.4,0,0.6,0.1,0.8,0.1c0.8,0.1,0.9,0.1,0.9,0.2c0,0.1-0.1,0.2-0.5,0.3v1.3H64.1z M63.7,2.2V4h0.2
		c0.7-0.7,1.1-1.1,1.6-1.9H63.7z"/>
	<path fill="#231815" d="M70.1,10.1c1.4-1,2.1-1.8,2.8-3.2c0.6-1.2,1-2.4,1.2-3.9c0.1-0.6,0.1-1.4,0.1-1.9c0-0.2,0-0.3,0-0.6
		c0.4,0,0.7,0.1,0.9,0.1c0.8,0.1,1,0.1,1,0.3c0,0.1-0.1,0.2-0.5,0.3c0,0.2,0,0.3,0,0.4c0,0.7,0.2,1.7,0.4,2.6
		c0.5,1.5,1.2,2.6,2.4,3.5c0.7,0.5,1.2,0.7,2.1,1.1l0,0.1c-0.6,0.2-0.8,0.5-1.1,1.2c0,0.1-0.1,0.1-0.1,0.1c-0.2,0-1.2-0.8-1.7-1.4
		c-0.7-0.9-1.3-2.1-1.7-3.5c-0.2-0.9-0.3-1.6-0.4-2.9c-0.1,1.8-0.4,2.9-0.9,4c-0.7,1.4-1.7,2.5-3,3.3c-0.4,0.2-0.7,0.4-1.4,0.7
		L70.1,10.1z"/>
	<path fill="#231815" d="M83.6,4.9c0,1.9-0.7,3.5-1.5,3.5c-0.3,0-0.5-0.4-0.5-0.9c0-0.2,0-0.3,0.1-0.4C81.7,7,81.8,7,82,6.8
		c0.3-0.2,0.6-0.5,0.9-0.8c0.3-0.4,0.4-0.7,0.5-1.1L83.6,4.9z M82.1,2.7c0.5,0.5,0.8,0.7,1.5,0.7c0.4,0,1.1-0.1,1.8-0.2
		c0-1.1,0-1.5-0.1-1.7C85.3,1.2,85,1,84.5,0.9c0.2-0.1,0.3-0.2,0.5-0.2c0.4,0,1.1,0.2,1.5,0.3c0.3,0.2,0.5,0.3,0.5,0.5
		c0,0.1,0,0.2-0.2,0.4c-0.1,0.3-0.2,0.5-0.2,1.1c1.2-0.2,1.5-0.4,1.8-0.6c0.1-0.1,0.2-0.1,0.3-0.1c0.2,0,0.5,0.1,0.8,0.3
		c0.2,0.1,0.3,0.3,0.3,0.5c0,0.2-0.1,0.3-0.3,0.3c-0.1,0.1-0.2,0.1-0.7,0.2c0,0-0.4,0-0.7,0.1c-0.1,0-0.6,0.1-1.6,0.2
		c0,0.5,0,0.6,0,0.8c0,0.9,0.1,2.1,0.1,3c0,0.2,0,0.3,0,0.4c0,0.9-0.4,1.5-0.9,1.5c-0.3,0-0.4-0.1-0.5-0.4C85.1,9,85,8.8,84.7,8.5
		C84.3,8.2,84,8,83.6,7.7l0-0.1c0.8,0.2,1.2,0.3,1.8,0.4c0-1.2,0.1-2.5,0.1-4c-0.7,0.1-1.1,0.1-1.4,0.1c-1.1,0-1.6-0.3-2-1.3
		L82.1,2.7z M87.8,4.7c1,0.5,1.4,0.7,1.9,1.2c0.4,0.4,0.5,0.7,0.5,1.1c0,0.6-0.3,1.1-0.7,1.1c-0.1,0-0.2-0.1-0.3-0.2
		c0-0.1,0-0.1-0.1-0.4C88.9,6.5,88.3,5.5,87.8,4.7L87.8,4.7z"/>
	<path fill="#231815" d="M92.9,4.4c0.2,0.2,0.5,0.2,1.1,0.2c0.4,0,2.5,0,4.4-0.1c0.2,0,0.9,0,1.2,0c1.1,0,1.4,0,1.6,0.2
		c0.1,0.1,0.1,0.2,0.1,0.3c0,0.3-0.2,0.5-0.7,0.5C100,5.7,99,5.7,95.7,5.7c-0.5,0-0.6,0-1.4,0c-0.3,0-0.3,0-0.5,0.1
		C93.7,5.9,93.6,6,93.5,6c-0.3,0-0.6-0.2-0.8-0.7c-0.3-0.4-0.4-0.8-0.4-1.1c0-0.2,0-0.2,0.1-0.4C92.6,4.2,92.7,4.3,92.9,4.4z"/>
	<path fill="#231815" d="M108.2,4.6c0.8,0.5,1.7,1.2,2.3,1.9c0.5,0.6,0.7,1,0.7,1.4c0,0.6-0.4,1.2-0.7,1.2c-0.2,0-0.3-0.1-0.4-0.5
		c-0.2-0.6-0.2-0.7-0.3-1c-1,0.3-1.4,0.4-3.8,1c-0.6,0.1-0.9,0.2-1.3,0.3c-0.1,0-0.1,0-0.3,0.2c-0.1,0.1-0.2,0.1-0.3,0.1
		c-0.3,0-0.5-0.2-0.8-0.7s-0.4-0.8-0.4-1.2c0-0.1,0-0.2,0.1-0.3c0.2,0.3,0.3,0.5,0.5,0.6c0.2,0.1,0.3,0.2,0.6,0.2c0.1,0,0.1,0,0.3,0
		c0.4-0.7,1-2.2,1.4-3.4c0.5-1.4,0.7-2.2,0.7-2.5c0-0.4-0.2-0.6-0.7-0.9c0.1-0.1,0.2-0.1,0.4-0.1c0.4,0,0.9,0.2,1.4,0.5
		c0.4,0.3,0.6,0.5,0.6,0.7c0,0.1-0.1,0.2-0.2,0.4c-0.2,0.3-0.2,0.3-1.2,2c-0.8,1.4-1.4,2.5-1.9,3.2c1.6-0.1,3.8-0.4,4.9-0.6
		C109.1,6,108.8,5.5,108.2,4.6L108.2,4.6z"/>
</g>
<g>
	<path fill="#5A65B3" d="M8.2,45.7c2.4-1.4,4.2-3.4,5.2-5.7c1-2.2,1.4-4.7,1.4-8.8c-1.6,0.1-3.3,0.3-5.5,0.7c0,0.2,0,0.3,0,0.3v1.2
		c0,0.9,0,2.9,0.1,3.8c0,0.1,0,0.1,0,0.2c0,1.4-0.4,2.1-1.1,2.1c-0.5,0-0.9-0.4-1.4-1c-0.4-0.5-0.6-1.2-0.6-1.6
		c0-0.2,0.1-0.4,0.2-0.8c0.3-0.8,0.4-1.8,0.5-3.6c-1.2,0.2-1.9,0.5-2.9,1c-0.4,0.2-0.8,0.3-1.1,0.3c-0.7,0-1.7-0.9-2.4-2.1
		C0.2,31.1,0,30.6,0,30.2c0-0.1,0-0.2,0.1-0.3c0.8,1,1.5,1.4,2.6,1.4c0.7,0,2.3-0.2,4.2-0.6c0-1.6-0.1-3.2-0.3-3.8
		C6.3,26,5.8,25.5,4.6,25c0.3-0.2,0.5-0.3,0.9-0.3c0.9,0,2.3,0.5,3.3,1.2c0.7,0.5,0.9,0.8,0.9,1.3c0,0.3,0,0.4-0.2,0.8
		c-0.2,0.5-0.3,1.4-0.3,2.3c0.9-0.2,1.6-0.3,2.8-0.4c0.3,0,0.3,0,1.9-0.2c0.4,0,0.4,0,0.8-0.1c0-0.4,0-1.1,0-2.1
		c0-1.9-0.1-2.7-0.5-3.2c-0.4-0.5-0.9-0.8-2-1.1c0.4-0.3,0.7-0.4,1.3-0.4c1.1,0,2.4,0.3,3.4,0.8c0.8,0.4,1.2,0.8,1.2,1.3
		c0,0.2,0,0.3-0.2,0.7c-0.4,0.8-0.5,1.6-0.6,3.7c1.5-0.1,2.2-0.2,3-0.6c0.4-0.2,0.5-0.2,0.7-0.2c0.5,0,1.2,0.3,1.9,0.7
		c0.7,0.4,1,0.8,1,1.3c0,0.5-0.4,0.8-0.9,0.8c-0.1,0-0.2,0-0.4,0c-1.3-0.1-2.8-0.2-4.5-0.2c-0.2,0-0.5,0-0.9,0
		c-0.1,3.1-0.2,4.3-0.4,5.6c-0.5,3.3-1.9,5.5-4.7,7.4C11,45,9.9,45.5,8.4,46L8.2,45.7z"/>
	<path fill="#5A65B3" d="M27.4,25.6c3,0.5,4.7,1,5.9,1.8c0.9,0.5,1.3,1.3,1.3,2.3c0,1.3-0.6,2.3-1.5,2.3c-0.5,0-0.7-0.2-1.1-0.9
		c-1.3-2.4-2.7-3.8-4.8-5.1L27.4,25.6z M48,27.2c-1.5,3.1-3.4,5.7-6.1,8.4c-2.4,2.4-4.4,4-7.9,6.2c-0.7,0.5-1.2,0.8-1.5,1.2
		c-0.4,0.5-0.7,0.7-1.1,0.7c-0.7,0-1.7-0.8-2.7-2c-0.9-1.1-1.3-2.1-1.3-3c0-0.2,0-0.4,0.1-0.7c0.7,1.2,1.6,2,2.4,2
		c1.1,0,4.7-1.9,7.9-4.2c4-2.9,7.5-5.9,9.8-8.7L48,27.2z"/>
	<path fill="#5A65B3" d="M56.8,34.2c2.2,0.9,3.9,1.7,5.4,2.7c3.3-3.4,6.6-7.3,6.6-7.9c0-0.2-0.1-0.2-0.5-0.2c-1.2,0-4.9,0.6-8,1.3
		c-2.6,0.6-4,1-5.3,1.7c-0.3,0.2-0.6,0.2-0.8,0.2c-0.7,0-1.5-0.7-2.4-1.8c-0.7-0.9-1-1.9-1-2.5c0-0.3,0.1-0.5,0.2-0.7
		c0.8,1.4,1.6,1.9,3.1,1.9c1.1,0,3.6-0.3,8.2-0.9c5-0.7,5-0.7,5.4-0.8c0.5-0.1,0.5-0.1,1.1-0.4c0.3-0.2,0.6-0.3,0.9-0.3
		c0.6,0,1.4,0.5,2.4,1.5c1,1,1.4,1.7,1.4,2.2c0,0.4-0.2,0.7-0.5,0.8c-0.2,0.1-0.2,0.1-0.7,0.2c-0.4,0.1-0.8,0.4-4,2.7
		c-2.8,2.1-3.6,2.6-5,3.5c0.7,0.5,1.5,1.2,1.9,1.8c0.5,0.6,0.7,1.1,0.7,1.9c0,1.4-0.7,2.5-1.6,2.5c-0.5,0-0.8-0.3-1.2-1.3
		c-0.5-1.2-1.8-3.2-2.9-4.7c-1-1.2-1.9-2.1-3.3-3.3L56.8,34.2z"/>
	<path fill="#5A65B3" d="M78.8,24.4c1,0,2.8,0.6,3.6,1.2c0.4,0.3,0.7,0.7,0.7,1.1c0,0,0,0,0,0.1c0,0.2,0,0.3-0.2,0.9
		c-0.1,0.5-0.2,1.7-0.2,3.4c0,0.4,0,1.2,0.1,2.4c0,0.7,0,1.3,0,1.6c0,0.8,0,1.1-0.1,1.5c-0.1,0.6-0.5,1-1,1c-0.5,0-1-0.4-1.5-1.2
		c-0.4-0.7-0.7-1.5-0.7-1.9c0-0.2,0-0.2,0.2-0.7c0.3-0.8,0.5-2.4,0.5-4.4c0-1.9-0.1-2.8-0.5-3.4c-0.4-0.6-0.7-0.8-1.7-1.3
		C78.1,24.4,78.3,24.4,78.8,24.4z M81.8,45.9c2.8-1.8,4.7-3.7,5.9-6c1.3-2.6,1.6-4.8,1.6-11c0-3.1-0.1-4-0.5-4.5
		c-0.3-0.5-1.1-1-2.1-1.3c0.4-0.3,0.7-0.4,1.2-0.4c0.9,0,2.2,0.3,3.2,0.8c1.2,0.5,1.7,1,1.7,1.6c0,0.2,0,0.3-0.2,0.7
		c-0.3,0.7-0.4,1.8-0.5,5.4c-0.1,3.9-0.2,5.2-0.7,6.7c-1.2,3.9-4.5,6.8-9.5,8.3L81.8,45.9z"/>
	<path fill="#5A65B3" d="M100.1,25.6c3,0.5,4.7,1,5.9,1.8c0.9,0.5,1.3,1.3,1.3,2.3c0,1.3-0.6,2.3-1.5,2.3c-0.5,0-0.7-0.2-1.1-0.9
		c-1.3-2.4-2.7-3.8-4.8-5.1L100.1,25.6z M120.7,27.2c-1.5,3.1-3.4,5.7-6.1,8.4c-2.4,2.4-4.4,4-7.9,6.2c-0.7,0.5-1.2,0.8-1.5,1.2
		c-0.4,0.5-0.7,0.7-1.1,0.7c-0.7,0-1.7-0.8-2.7-2c-0.9-1.1-1.3-2.1-1.3-3c0-0.2,0-0.4,0.1-0.7c0.7,1.2,1.6,2,2.4,2
		c1.1,0,4.7-1.9,7.9-4.2c4-2.9,7.5-5.9,9.8-8.7L120.7,27.2z"/>
	<path fill="#5A65B3" d="M128.9,45.1c0,0.6-0.4,0.7-2.3,0.7c-1,0-1.1-0.1-1.1-0.7c0.2-4.8,0.2-7.8,0.2-13.9c0-5.6,0-6.9-0.2-9.2
		c1.6,0.7,2.1,1,3.6,1.8h10.3c0.7-0.8,1-1,1.7-1.8c1.1,0.8,1.4,1,2.4,1.8c0.3,0.2,0.4,0.4,0.4,0.5c0,0.2-0.2,0.4-1,0.9l0,4.3
		c0,8.1,0,9.9,0.2,15.2c0,0.3-0.1,0.5-0.2,0.6c-0.2,0.2-1.1,0.3-2,0.3c-0.9,0-1.1-0.1-1.1-0.5c0,0,0-0.1,0-0.1v-1.6h-10.9V45.1z
		 M139.8,24.5h-10.9V33h10.9V24.5z M128.9,33.6v9.4h10.9v-9.4H128.9z"/>
	<path fill="#5A65B3" d="M168.3,26.8c0.7-0.8,0.9-1,1.5-1.7c1.1,0.7,1.4,0.9,2.3,1.7c0.2,0.2,0.4,0.3,0.4,0.4c0,0.2,0,0.2-1,0.8v9.6
		c0,1.5,0,1.5,0.1,5.6c-0.1,1.2-0.5,1.8-1.5,2.3c-0.7,0.3-1.7,0.5-2.6,0.5c-0.4,0-0.4-0.1-0.5-0.5c-0.1-0.7-0.3-1.2-0.7-1.5
		c-0.3-0.2-0.9-0.5-1.7-0.7c-0.2-0.1-0.2-0.1-1.9-0.5v-0.3c3.2,0.2,3.4,0.2,5.4,0.2c0.4,0,0.5-0.1,0.5-0.5V27.4h-15.4v13.3l0,4.6
		c-0.1,0.7-0.2,0.8-1.7,0.8c-0.3,0-0.5,0-0.7,0c0,0-0.1,0-0.1,0c-0.5,0-0.7-0.2-0.7-0.6c0.1-2.6,0.1-4.6,0.1-10.5
		c0-7.4,0-8.5-0.2-10.1c1.6,0.7,2.1,0.9,3.7,1.8h3.2c0.5-1.2,1.1-3.4,1.5-5.6c4.6,1.1,4.7,1.2,4.7,1.5c0,0.3-0.3,0.4-1.5,0.6
		c-1.4,1.5-3,3-3.6,3.4H168.3z M162.9,31.2c0.6-0.7,0.8-0.8,1.4-1.5c0.9,0.6,1.2,0.8,2.1,1.5c0.2,0.2,0.3,0.3,0.3,0.4
		c0,0.2-0.2,0.4-0.7,0.8c0,5.3,0,5.6,0.1,7.5c0,0.3-0.1,0.4-0.3,0.5c-0.2,0.1-1.2,0.2-2.1,0.2c-0.4,0-0.6-0.1-0.6-0.5v-1.4h-4.6v1.7
		c0,0.5-0.3,0.7-1.5,0.7c-0.1,0-0.2,0-0.2,0c-0.2,0-0.4,0-0.5,0c0,0,0,0-0.1,0c-0.4,0-0.5-0.2-0.5-0.5c0,0,0-0.1,0-0.1
		c0.1-2.2,0.1-4.1,0.1-6.8c0-1.5,0-1.7-0.1-4c1.5,0.6,1.9,0.8,3.3,1.5H162.9z M158.5,38.1h4.6v-6.4h-4.6V38.1z"/>
</g>
</svg>
