<svg version="1.1" id="umi" xmlns="http://www.w3.org/2000/svg" xmlns:xlink="http://www.w3.org/1999/xlink" x="0px"
	 y="0px" viewBox="0 0 101.3 46.8" enable-background="new 0 0 101.3 46.8" xml:space="preserve">
<g>
	<path fill="#231815" d="M3,10.4c0.7-0.8,1.2-1.6,1.7-2.6C4.9,7,5.2,6,5.2,5.4c0-0.3,0-0.4-0.2-0.5C4.3,5,3.2,5.3,2.7,5.6
		C2.5,5.7,2.4,5.7,2.2,5.7C2,5.7,1.6,5.5,1.3,5C1,4.7,1,4.5,1,4.3c0-0.1,0-0.1,0-0.2c0.3,0.4,0.6,0.6,1.1,0.6c0.3,0,0.4,0,2.1-0.3
		c1-0.2,1.5-0.2,3.3-0.4c0.4,0,0.7-0.1,1-0.2c0.1-0.1,0.2-0.1,0.3-0.1c0.2,0,0.4,0.1,0.7,0.2c0.4,0.2,0.6,0.4,0.6,0.7
		c0,0.2-0.2,0.4-0.5,0.4c0,0-0.1,0-0.2,0C8.8,4.8,8,4.7,7.4,4.7c-0.6,0-1,0-1.6,0.1c0.6,0.4,0.7,0.5,0.7,0.8c0,0.5-0.5,1.7-1,2.5
		C4.9,9.1,4.2,9.8,3,10.4L3,10.4z M2.8,1.5c0.4,0.4,0.8,0.6,1.3,0.6c0.4,0,1-0.1,1.5-0.3c0.4-0.1,0.6-0.2,1-0.4
		C6.8,1.3,6.9,1.3,7,1.3c0.2,0,0.3,0.1,0.6,0.2C7.9,1.7,8,1.9,8,2.1c0,0.2-0.2,0.3-0.6,0.4c-0.7,0.2-2,0.3-2.7,0.3
		C3.8,2.8,3.2,2.4,2.8,1.5L2.8,1.5z M8.1,0.8c1.1,0.4,1.8,1,1.8,1.6c0,0.3-0.1,0.5-0.4,0.5c-0.2,0-0.2,0-0.5-0.6
		C8.8,1.8,8.4,1.3,8,0.9L8.1,0.8z M9.2,0c0.6,0.2,1,0.3,1.3,0.5c0.4,0.3,0.6,0.5,0.6,0.9c0,0.3-0.1,0.4-0.3,0.4
		c-0.1,0-0.2-0.1-0.4-0.3C10,1,9.7,0.6,9.1,0.2L9.2,0z"/>
	<path fill="#231815" d="M10.6,7.3c1.3-0.8,2.8-1.9,4.1-3.3c1.2-1.2,1.8-2.1,1.8-2.4c0-0.2-0.3-0.5-0.7-0.7c0.1,0,0.2,0,0.4,0
		c0.3,0,0.7,0.1,1.1,0.4c0.5,0.3,0.8,0.6,0.8,0.9c0,0.2-0.1,0.3-0.4,0.5c0,0,0,0-0.7,0.7C16.2,4,16.2,4,15.4,4.7
		c0.4,0.2,0.7,0.5,0.8,0.6c0.1,0.2,0.1,0.3,0.1,1.1c0,0.5,0,0.6,0.1,2.7c0,0.2,0,0.3,0,0.4c0,0.5-0.1,0.7-0.5,0.7
		c-0.4,0-1-0.7-1-1.1c0-0.1,0-0.2,0.1-0.4c0.1-0.5,0.2-1.6,0.2-2.8c0-0.6,0-0.7-0.2-0.9c-0.9,0.7-1.7,1.2-2.4,1.6
		c-0.6,0.3-1.4,0.7-2.1,0.9L10.6,7.3z"/>
	<path fill="#231815" d="M23.3,10.2c1-0.6,1.7-1.4,2.1-2.3C25.8,7,26,6,26,4.3c-0.6,0-1.3,0.1-2.2,0.3c0,0.1,0,0.1,0,0.1v0.5
		c0,0.4,0,1.2,0,1.6c0,0,0,0.1,0,0.1c0,0.6-0.1,0.8-0.5,0.8c-0.2,0-0.4-0.1-0.6-0.4c-0.1-0.2-0.2-0.5-0.2-0.6c0-0.1,0-0.2,0.1-0.3
		c0.1-0.3,0.2-0.7,0.2-1.5C22.3,4.9,22,5,21.7,5.2c-0.2,0.1-0.3,0.1-0.4,0.1c-0.3,0-0.7-0.4-1-0.9C20.1,4.3,20,4.1,20,3.9
		c0,0,0-0.1,0-0.1c0.3,0.4,0.6,0.6,1.1,0.6c0.3,0,0.9-0.1,1.7-0.2c0-0.6-0.1-1.3-0.1-1.6c-0.1-0.3-0.3-0.5-0.8-0.8
		c0.1-0.1,0.2-0.1,0.4-0.1c0.4,0,0.9,0.2,1.3,0.5C23.9,2.4,24,2.5,24,2.7c0,0.1,0,0.1-0.1,0.3c-0.1,0.2-0.1,0.6-0.1,0.9
		c0.4-0.1,0.7-0.1,1.1-0.2c0.1,0,0.1,0,0.8-0.1c0.2,0,0.2,0,0.3,0c0-0.2,0-0.5,0-0.9C26,2,26,1.7,25.8,1.5c-0.2-0.2-0.4-0.3-0.8-0.4
		c0.2-0.1,0.3-0.2,0.5-0.2c0.4,0,1,0.1,1.4,0.3c0.3,0.2,0.5,0.3,0.5,0.5c0,0.1,0,0.1-0.1,0.3c-0.2,0.3-0.2,0.6-0.2,1.5
		c0.6,0,0.9-0.1,1.2-0.2c0.2-0.1,0.2-0.1,0.3-0.1c0.2,0,0.5,0.1,0.8,0.3c0.3,0.2,0.4,0.3,0.4,0.5c0,0.2-0.1,0.3-0.4,0.3
		c0,0-0.1,0-0.2,0c-0.5-0.1-1.2-0.1-1.8-0.1c-0.1,0-0.2,0-0.4,0C27,5.6,27,6,26.9,6.6c-0.2,1.4-0.8,2.2-1.9,3
		C24.5,9.9,24.1,10.1,23.3,10.2L23.3,10.2z"/>
	<path fill="#231815" d="M31.8,4.8C32.1,4.9,32.3,5,32.9,5c0.4,0,2.5,0,4.4-0.1c0.2,0,0.9,0,1.2,0c1.1,0,1.4,0,1.6,0.2
		c0.1,0.1,0.1,0.2,0.1,0.3c0,0.3-0.2,0.5-0.7,0.5C38.9,6,38,6.1,34.7,6.1c-0.5,0-0.6,0-1.4,0c-0.3,0-0.3,0-0.5,0.1
		c-0.2,0.1-0.3,0.1-0.4,0.1c-0.3,0-0.6-0.2-0.8-0.7c-0.3-0.4-0.4-0.8-0.4-1.1c0-0.2,0-0.2,0.1-0.4C31.6,4.5,31.7,4.6,31.8,4.8z"/>
	<path fill="#231815" d="M42.6,1.6c0.4,0,0.9,0.1,1.3,0.3c0.4,0.2,0.6,0.4,0.6,0.7c0,0.1,0,0.2-0.2,0.5c-0.1,0.3-0.2,0.7-0.3,1.5
		c0.2,0.1,0.3,0.1,0.5,0.1c0.4,0,1.3-0.2,1.9-0.4c0.5-0.2,0.7-0.3,1.1-0.5c0.1-0.1,0.2-0.1,0.3-0.1c0.2,0,0.5,0.1,0.7,0.2
		C48.9,4,49,4.1,49,4.3c0,0.2-0.2,0.4-0.7,0.5c-1.1,0.3-2.5,0.5-3.2,0.5c-0.5,0-0.8-0.1-1.1-0.4C44,5.6,44,6.5,44,6.8
		c0,0.8,0.1,1.1,0.3,1.3c0.2,0.2,0.5,0.3,1.2,0.3c0.5,0,1.4-0.1,1.9-0.2C47.5,8.2,47.7,8.2,48,8c0.2-0.1,0.3-0.1,0.4-0.1
		c0.2,0,0.4,0.1,0.6,0.2c0.3,0.2,0.4,0.4,0.4,0.6c0,0.2-0.1,0.4-0.5,0.5c-0.4,0.1-1.6,0.2-2.6,0.2c-0.9,0-1.7-0.1-2.1-0.3
		c-0.7-0.3-1-0.8-1.1-1.7c-0.1-0.4-0.1-1-0.1-2.3c0-0.2,0-0.3,0-0.5c0-0.4,0-0.7,0-0.8c0-0.4,0-1,0-1.2c0-0.6-0.3-0.8-0.9-1
		C42.3,1.6,42.4,1.6,42.6,1.6z M48.1,1.5c0.5,0.2,0.9,0.3,1.2,0.5C49.8,2.4,50,2.7,50,3c0,0.3-0.1,0.4-0.3,0.4
		c-0.1,0-0.2-0.1-0.4-0.3C49,2.6,48.5,2.1,48,1.7L48.1,1.5z M49.2,0.6c0.5,0.1,1,0.3,1.3,0.5c0.4,0.3,0.6,0.5,0.6,0.8
		c0,0.3-0.1,0.4-0.3,0.4c-0.1,0-0.2-0.1-0.4-0.3c-0.4-0.5-0.8-0.9-1.3-1.3L49.2,0.6z"/>
	<path fill="#231815" d="M51.8,9.6c1-0.6,2.3-1.7,3.3-2.8c1.1-1.3,2.2-2.9,2.7-4.1c-0.9,0.1-2.4,0.5-2.9,0.9
		c-0.2,0.1-0.3,0.1-0.4,0.1c-0.3,0-0.5-0.2-0.8-0.6c-0.2-0.4-0.4-0.7-0.4-0.9c0-0.1,0-0.2,0.1-0.3c0.3,0.5,0.6,0.7,1.2,0.7
		c0.3,0,1.4-0.2,2.4-0.4C57.6,2,57.7,2,57.9,1.8c0.1-0.1,0.2-0.1,0.3-0.1c0.2,0,0.5,0.2,0.8,0.5c0.2,0.2,0.4,0.4,0.4,0.5
		c0,0.1,0,0.2-0.2,0.3c-0.2,0.2-0.3,0.3-0.6,0.8C58,4.7,57.8,5,57.2,5.8C58.6,6.4,59.5,7,60,7.4c0.3,0.3,0.5,0.7,0.5,1.1
		c0,0.6-0.3,1-0.6,1c-0.2,0-0.3-0.1-0.5-0.4c-0.5-1.2-1.3-2.1-2.5-3c-0.9,1.1-1.7,1.7-2.6,2.4c-0.8,0.5-1.4,0.8-2.5,1.2L51.8,9.6z"
		/>
</g>
<g>
	<path fill="#5A65B3" d="M13.3,38.4c1,1.5,1.9,2.3,3.7,3.1c2.2,1,4.6,1.5,8,1.5v0.3c-0.9,0.4-1.3,0.7-1.6,1.3
		c-0.2,0.4-0.5,0.9-0.6,1.3c-0.1,0.4-0.2,0.5-0.5,0.5c-0.7,0-2.8-0.8-4-1.5c-2.5-1.5-4.4-3.7-5.5-6.5c-0.7,2.5-2.1,4.4-4.3,5.8
		c-2.2,1.4-4.3,2-8.5,2.5l-0.1-0.4c3.4-1,5.5-2.2,7.4-3.9c1.2-1.1,2-2.5,2.5-4.1H2.8c-0.8,0-1.5,0.1-2.1,0.2l-0.2-0.9
		c0.9,0.2,1.5,0.2,2.4,0.2h7.1c0.2-0.9,0.3-1.7,0.3-2.4c0-0.1,0-0.4,0-0.7c3.6,0.3,4.2,0.4,4.2,0.8c0,0.3-0.3,0.5-1.1,0.6
		c-0.1,0.8-0.2,1.1-0.3,1.7h6c0.8-0.9,1.1-1.2,1.9-2.2c1.3,0.9,1.7,1.2,2.9,2.3c0.1,0.1,0.2,0.2,0.2,0.3c0,0.1-0.1,0.2-0.4,0.2H13.3
		z M13.2,26c0.9-1.5,1.5-3,1.9-4.5c0.9,0.2,1.6,0.5,2.1,0.6c1.8,0.5,2.1,0.7,2.1,0.9c0,0.3-0.3,0.4-1.3,0.5
		c-1.5,1.2-2.1,1.6-3.5,2.5h4.4c0.8-0.9,1-1.2,1.8-2c1.2,0.9,1.6,1.1,2.7,2.1c0.2,0.1,0.2,0.2,0.2,0.3c0,0.1-0.1,0.2-0.4,0.2H13.3
		v3.2h4c0.8-0.9,1.1-1.1,1.9-2c1.2,0.9,1.5,1.2,2.7,2.1c0.1,0.1,0.2,0.2,0.2,0.3c0,0.1-0.1,0.2-0.4,0.2h-8.4v3.3h6.2
		c0.8-0.9,1-1.2,1.8-2.1c1.3,0.9,1.7,1.2,2.8,2.1c0.2,0.1,0.2,0.2,0.2,0.3c0,0.1-0.2,0.2-0.4,0.2H2.3c-0.7,0-1.4,0.1-2.2,0.2l-0.2-1
		c0.9,0.2,1.5,0.2,2.3,0.2h7.9v-3.3H4.7c-0.7,0-1.3,0.1-2,0.2l-0.2-1c0.8,0.2,1.4,0.2,2.1,0.2h5.6v-3.2H3.2c-0.6,0-1.1,0-2,0.2
		l-0.2-1C1.8,25.9,2.4,26,3.2,26h4.4c-0.2-0.3-0.2-0.3-0.6-1.4c-0.5-1.2-0.9-1.9-1.8-2.7l0.2-0.2c3.6,1,4.7,1.7,4.7,2.9
		c0,0.5-0.2,1-0.7,1.4H13.2z"/>
	<path fill="#5A65B3" d="M47.5,37.5c-0.2,0.3-0.3,0.5-0.4,0.7c-1,1.9-1.1,2.1-1.7,2.8c-2.3,3-5.5,4.7-8.8,4.7c-2.3,0-4-0.9-5-2.4
		c-0.8-1.2-1.1-2.9-1.1-5.8c0-1.7,0-2.4,0.4-8.7c0-0.8,0.1-1.6,0.1-2.3c0-1.9-0.4-2.6-2.2-3.3c0.4-0.2,0.5-0.3,0.9-0.3
		c1,0,2.3,0.4,3.4,1c1.2,0.6,1.7,1.3,1.7,2c0,0.4-0.1,0.5-0.3,1.1c-0.8,1.8-1.8,8.4-1.8,12.1c0,2.6,1.2,3.8,3.7,3.8
		c2.3,0,4.9-0.8,7.2-2.3c1.4-0.9,2-1.4,3.5-3.1L47.5,37.5z"/>
	<path fill="#5A65B3" d="M52.4,26.8c1.2,0.9,2.3,1.2,3.8,1.2c1.2,0,3.1-0.3,4.6-0.8c-0.7-1.1-1.6-2.3-2.2-2.7
		c-0.5-0.4-1.3-0.6-2.2-0.6c-0.1,0-0.2,0-0.4,0c0.3-0.6,0.6-0.8,1.5-1c0.5-0.1,1.1-0.2,1.8-0.2c1.1,0,2,0.2,2.3,0.5
		c0.3,0.2,0.3,0.4,0.4,1.2c0,0.5,0.2,1,0.9,2.2c2.2-0.8,2.8-1.2,3.6-2c0.2-0.2,0.5-0.3,1-0.3c1.1,0,1.8,0.4,1.8,1
		c0,0.8-1.2,1.4-5.6,2.9c0.2,0.4,0.2,0.4,0.5,0.8c0.1,0.2,0.5,0.9,1.1,1.9c1.7-0.6,2.4-0.9,3.1-1.4c-0.5-0.6-0.8-0.8-1.6-1.5
		l0.2-0.2c1,0.5,1.7,0.7,2.4,0.7c0.2,0,0.2,0,0.8-0.1c0.1,0,0.2,0,0.3,0c0.7,0,1.1,0.4,1.1,1c0,1-1.4,1.9-5.2,3.3
		c0.7,1.2,0.8,1.4,1.1,1.9c0.6,1,0.6,1,1.2,2c0.5,0.8,0.7,1.3,0.7,1.8c0,0.7-0.2,1.5-0.5,1.9c-0.2,0.3-0.5,0.5-0.9,0.5
		c-0.4,0-0.6-0.1-1-0.5c-0.9-0.9-1.2-1.1-2-1.4c-1.4-0.7-3-1.1-4.5-1.1c-2.6,0-4.5,1.1-4.5,2.7c0,1.6,1.7,2.5,4.8,2.5
		c1.1,0,1.6-0.1,3-0.4c0.2-0.1,0.5-0.1,0.7-0.1c1.1,0,2.4,1.1,2.4,2.1c0,0.5-0.3,0.8-0.9,1c-0.8,0.2-2.1,0.4-3.7,0.4
		c-3.1,0-5.3-0.5-6.8-1.6c-1-0.8-1.6-1.9-1.6-3.1c0-2.6,3-4.5,7.3-4.5c1.5,0,3.1,0.2,5.2,0.5c-0.3-1-0.8-2.3-1.8-4.1
		c-2,0.7-4.2,1-6,1c-2.3,0-3.6-0.8-4.6-3L54,31c1,1.2,2,1.6,3.4,1.6c1.7,0,3.7-0.4,6.1-1.1c-0.5-0.9-1-1.7-1.7-2.7
		c-1.9,0.5-3.5,0.8-4.9,0.8c-1.9,0-3.6-0.9-4.8-2.6L52.4,26.8z"/>
	<path fill="#5A65B3" d="M75.2,28.3c3.6,1,4.8,1.7,4.8,3c0,1.1-0.9,2.2-1.7,2.2c-0.2,0-0.3-0.1-0.4-0.2c-0.2-0.2-0.2-0.2-0.6-1.2
		c-0.5-1.2-1.1-2.2-2.3-3.5L75.2,28.3z M75.3,38.1c1,0.2,1.5,0.3,1.8,0.3c0.4,0,0.5-0.2,1.3-1.7c1.7-3.3,2.3-4.8,4.2-9.4l0.3,0.1
		l-3.3,11.1c-0.1,0.4-0.2,0.9-0.2,1.1c0,0.2,0.1,0.4,0.4,1.3c0.5,1.1,0.6,1.8,0.6,2.6c0,0.9-0.2,1.5-0.8,2.1s-1.2,0.8-1.9,0.8
		c-0.5,0-0.8-0.3-0.8-0.9c0-0.2,0-0.3,0.2-2.2c0.1-0.8,0.1-1.5,0.1-2c0-0.9-0.2-1.6-0.5-2c-0.2-0.3-0.3-0.4-1.7-0.9L75.3,38.1z
		 M76.8,22.3c2.1,0.5,3,0.8,3.7,1.2c1.1,0.6,1.5,1.1,1.5,1.9c0,1-0.8,2.1-1.7,2.1c-0.4,0-0.4-0.1-1.1-1.4c-0.6-1.3-1.2-2.2-2.6-3.6
		L76.8,22.3z M85.1,43.2c-0.1,0.5-0.4,0.6-1.2,0.6c-1.4,0-1.8-0.1-1.8-0.5c0-0.1,0-0.2,0.1-0.3c1-3.7,1.1-4.4,1.8-7.8h-1
		c-0.6,0-0.9,0-1.4,0.1l-0.2-0.9c0.6,0.2,1.1,0.2,1.7,0.2H84c0.4-2.2,0.6-3.3,0.8-5.3c-1,1-1.4,1.4-2.6,2.3L82,31.4
		c2.2-3.5,3.5-6.5,4-9.6c4.3,1,4.3,1,4.3,1.3c0,0.3-0.2,0.4-1.3,0.7c-0.6,1-0.8,1.4-1.2,2h7.6c0.9-1,1.2-1.4,2-2.3
		c1.4,1,1.8,1.4,3.1,2.5c0.1,0.1,0.1,0.2,0.1,0.2c0,0.1-0.1,0.1-0.3,0.1h-13c-0.6,0.8-0.7,0.9-1.3,1.6c0.6,0.4,0.9,0.5,1.7,1.1h7.4
		c0.6-0.7,0.8-0.8,1.5-1.4c0.9,0.7,1.2,0.9,2.1,1.7c0.2,0.2,0.3,0.3,0.3,0.4c0,0.2-0.2,0.4-0.9,0.6c-0.1,0.8-0.2,2.3-0.4,4.4h0.1
		c0.5-0.7,1-1.3,1.4-1.9c0.9,0.9,1.1,1.2,1.9,2.2c0.1,0.1,0.1,0.1,0.1,0.2c0,0.1-0.1,0.1-0.2,0.1h-3.3c-0.4,3.9-0.4,4.4-0.7,5.9h0.2
		c0.6-0.8,0.8-1.1,1.5-1.9c0.9,0.9,1.2,1.2,2.1,2.2c0.1,0.1,0.1,0.1,0.1,0.2c0,0.1-0.1,0.1-0.2,0.1h-3.7c-0.4,2.5-0.7,3.4-1.3,4
		c-0.5,0.5-1.2,0.8-2.1,1c-0.4,0.1-1,0.1-1.2,0.1c-0.2,0-0.3-0.1-0.4-0.5c-0.1-1.3-0.7-1.7-4-2.6l0.1-0.3c2.3,0.2,3.9,0.4,4.5,0.4
		c1,0,1.1-0.1,1.5-2.1h-8.7L85.1,43.2z M88.5,41.1c0.6-3.4,0.6-3.4,1-5.9h-2.7c-0.4,2.6-0.6,3.5-1.1,5.9H88.5z M89.5,34.6
		c0.3-2,0.3-2.1,0.6-5.1h-2.5c-0.2,1.5-0.2,1.5-0.8,5.1H89.5z M92,35.2c-0.1,1-0.2,1.7-0.3,2.2c-0.2,1.8-0.2,1.8-0.5,3.7h3
		c0.3-1.8,0.5-3.3,0.7-5.9H92z M95,34.6c0.3-3.9,0.3-3.9,0.4-5.1h-2.7c-0.1,0.9-0.3,2.6-0.6,5.1H95z"/>
</g>
</svg>
