<svg version="1.1" id="logo_umi" xmlns="http://www.w3.org/2000/svg" xmlns:xlink="http://www.w3.org/1999/xlink" x="0px"
	 y="0px" viewBox="0 0 393.8 62.5" enable-background="new 0 0 393.8 62.5" xml:space="preserve">
<g>
	<circle fill="#F47209" cx="55.2" cy="23.4" r="10.8"/>
	<path fill="#5A65B3" d="M18.2,23.7c5.6,0,10.4,3.6,12,8.7c-0.6-8.4-7.1-15-15.1-15C6.8,17.4,0,24.6,0,33.5
		c0,8.9,6.8,16.1,15.2,16.1c1.4,0,2.4-0.1,3.7-0.5c0,0,0,0,0,0c3.1-0.9,5.4-4,5.4-7.5c0-4.3-3.4-7.8-7.5-7.8s-7.5,3.5-7.5,7.8
		c0,2.2,0.8,4.1,2.2,5.5c-3.6-2.3-5.9-6.2-5.9-10.7C5.5,29.4,11.2,23.7,18.2,23.7z"/>
	<path fill="#5A65B3" d="M65,37.5c-0.1-0.7-0.2-1.5-0.3-2.2c-0.3,5.5-2.8,15-15.4,15.4C36.9,51.1,32,39.3,30.2,32.2
		c-0.3,1.7-0.4,3.5-0.4,5.3C30,51.3,38.5,61.6,47.6,62C59.3,62.4,66.7,53,65,37.5z"/>
	<path fill="#231815" stroke="#231815" stroke-miterlimit="10" d="M30.1,31.2"/>
	<polygon fill="#FFB904" points="28.3,8.9 26.1,8 24.1,9.3 24.2,6.9 22.3,5.4 24.6,4.8 25.5,2.5 26.8,4.6 29.2,4.6 27.7,6.5 	"/>
	<path fill="#FFB904" d="M40.5,0c-0.2,0-0.4,0-0.5,0C41.2,1.3,42,3.1,42,5.1c0,3.8-3,7-6.7,7.2c1.3,1.4,3.2,2.2,5.2,2.2
		c4,0,7.3-3.2,7.3-7.3S44.5,0,40.5,0z"/>
</g>
<g>
	<path fill="#231815" d="M92.2,21.8c0.7-1.2,1.1-2,1.5-3.4c0.4-1.1,0.5-1.7,0.6-2.4c1.3,0.3,1.5,0.3,1.6,0.4c0.1,0,0.2,0.1,0.2,0.2
		c0,0.1-0.1,0.2-0.5,0.2c-0.5,1.1-0.9,1.9-1.3,2.7c0.7,0.1,0.8,0.1,0.8,0.2c0,0.1-0.1,0.2-0.4,0.3v2.5c0,0.8,0,0.8,0,3.4
		c0,0.1,0,0.2-0.1,0.2c-0.1,0.1-0.4,0.1-0.8,0.1c-0.3,0-0.4-0.1-0.4-0.3v0c0.1-1.1,0.1-2.3,0.1-3.2v-2.2
		C93.1,21,92.8,21.3,92.2,21.8L92.2,21.8z M97.9,21.9h-1.6c-0.4,0-0.5,0-0.8,0.1l-0.1-0.4c0.3,0.1,0.6,0.1,0.8,0.1h1.6v-2.8h-1.8
		c-0.3,0-0.4,0-0.7,0.1l-0.1-0.4c0.3,0.1,0.6,0.1,0.8,0.1h4.2l0.8-1c0.5,0.4,0.7,0.5,1.2,1c0,0,0.1,0.1,0.1,0.1c0,0-0.1,0.1-0.1,0.1
		h-3.3v2.8h1c0.4-0.4,0.5-0.5,0.8-0.9c0.5,0.4,0.7,0.5,1.2,0.9c0,0,0.1,0.1,0.1,0.1c0,0-0.1,0.1-0.2,0.1h-2.9v3.6h1.3
		c0.4-0.4,0.4-0.4,0.9-1c0.5,0.4,0.7,0.6,1.3,1c0,0,0.1,0.1,0.1,0.1c0,0-0.1,0.1-0.1,0.1h-6.7c-0.3,0-0.5,0-0.8,0.1L95,25.4
		c0.3,0.1,0.6,0.1,0.9,0.1h2V21.9z M96.8,16.2c1.5,0.3,2,0.4,2.3,0.7c0.2,0.2,0.3,0.4,0.3,0.6c0,0.4-0.3,0.9-0.6,0.9
		c-0.1,0-0.2-0.1-0.4-0.4c-0.2-0.3-0.5-0.6-0.7-0.9C97.5,16.7,97.3,16.5,96.8,16.2L96.8,16.2z"/>
	<path fill="#231815" d="M111.5,17.6c0.3-0.3,0.4-0.4,0.7-0.7c0.6,0.4,0.7,0.5,1.3,1c0.1,0.1,0.1,0.2,0.1,0.2c0,0,0,0.1-0.1,0.1
		c0,0-0.1,0-0.3,0c-0.2,0-0.4,0-0.4,0c-0.8,0.5-1,0.5-1.5,0.8c0.1,0.1,0.1,0.1,0.1,0.1c0,0.1-0.1,0.1-0.2,0.1c0,0-0.2,0-0.5,0
		c-1,0.4-1.7,0.6-2.5,0.8v1.8l2.8-0.3c0.3-0.5,0.4-0.6,0.7-1.1c0.6,0.4,0.8,0.5,1.5,0.9c0,0,0.1,0.1,0.1,0.1c0,0,0,0.1-0.1,0.1
		l-5,0.6v2.5c0,0.1,0,0.1,0.1,0.2c0.1,0.1,0.6,0.1,1.8,0.1c1.1,0,1.5,0,1.6-0.3c0.1-0.2,0.5-1,0.9-2.2l0.1,0l-0.1,1.7
		c0,0.1,0,0.1,0,0.1c0,0.2,0,0.2,0.2,0.3c0.3,0.1,0.4,0.2,0.4,0.5c0,0.3-0.2,0.5-0.5,0.6c-0.3,0.1-0.7,0.1-1.9,0.2
		c-0.3,0-0.9,0-1.3,0c-1.4,0-2-0.1-2.3-0.3c-0.2-0.1-0.3-0.3-0.3-0.7c0-0.4,0-0.4,0-1.2v-1.5l-2.2,0.2c-0.4,0-0.8,0.1-1.2,0.2
		l-0.1-0.4c0.1,0,0.1,0,0.2,0c0.3,0,0.9,0,1.1,0l2.2-0.3v-1.7c-0.9,0.1-1.8,0.2-3,0.3l0-0.1c2.5-0.5,5.1-1.5,6.1-2.3
		c0.5,0.3,0.7,0.4,1.1,0.7c0.2-0.4,0.3-0.7,0.4-1.1H105c0,0.1,0,0.1,0,0.2c0,0.5-0.1,0.8-0.2,1.1c-0.2,0.4-0.6,0.6-0.9,0.6
		c-0.3,0-0.5-0.4-0.5-0.8c0-0.3,0.1-0.4,0.4-0.5c0.5-0.2,0.6-0.4,0.8-0.8c0.1-0.2,0.2-0.4,0.2-0.8h0.1c0.1,0.3,0.1,0.5,0.1,0.8h2.7
		v-0.7c0-0.3,0-0.4,0-0.8c1.2,0.1,1.5,0.1,1.7,0.2c0.1,0,0.1,0.1,0.1,0.1c0,0.1-0.1,0.2-0.5,0.3v0.9H111.5z"/>
	<path fill="#231815" d="M121.6,23.6c0.4-0.4,0.5-0.5,0.8-0.8c0.5,0.4,0.7,0.5,1.2,0.9c0,0,0.1,0.1,0.1,0.1c0,0-0.1,0.1-0.1,0.1H120
		v1.7h2.3c0.4-0.4,0.5-0.6,0.9-1c0.6,0.4,0.7,0.6,1.3,1.1c0.1,0.1,0.1,0.1,0.1,0.1s-0.1,0.1-0.1,0.1h-9.3c-0.3,0-0.4,0-0.6,0.1
		l-0.1-0.4c0.3,0.1,0.4,0.1,0.7,0.1h3.6v-1.7h-2.7c-0.3,0-0.4,0-0.6,0.1l-0.1-0.4c0.3,0.1,0.5,0.1,0.7,0.1h2.7v-0.4
		c0-0.3,0-0.5,0-0.7c-0.2,0-0.4,0-0.6,0c-0.3,0-0.4,0-0.4-0.2c0,0,0,0,0,0c0-1.5,0-1.5,0-2.4v-0.4h-1c-0.1,1.1-0.4,1.9-0.9,2.6
		c-0.3,0.4-0.7,0.6-1.5,1.2l-0.1-0.1c1-1.2,1.3-1.9,1.4-3.6H115c-0.2,0-0.4,0-0.6,0.1l-0.1-0.4c0.2,0.1,0.4,0.1,0.6,0.1h0.8
		c0-0.5,0-0.7,0-1.3v-0.7h-0.5c-0.2,0-0.4,0-0.6,0.1l-0.1-0.4c0.2,0.1,0.4,0.1,0.6,0.1h3.2c0.3-0.3,0.4-0.4,0.7-0.7
		c0.4,0.3,0.6,0.4,1,0.8c0.1,0,0.1,0.1,0.1,0.1c0,0-0.1,0.1-0.1,0.1H119v2.1h0c0.3-0.3,0.3-0.4,0.6-0.7c0.4,0.4,0.5,0.4,0.9,0.8
		l0-1.5c0-0.5,0-0.7,0-1.2c1.5,0.1,1.6,0.2,1.6,0.3c0,0.1-0.1,0.2-0.4,0.3v2.2c0,0.4,0,0.6,0,1.1c0,0.2-0.2,0.3-0.7,0.3
		c-0.4,0-0.4,0-0.4-0.2c0-0.4,0-0.4,0-1.1l-0.1,0H119v0.4c0,1.7,0,1.7,0,2.4v0.1c0.6,0.1,1,0.1,1.2,0.1c0.2,0,0.2,0.1,0.2,0.2
		c0,0.1-0.1,0.2-0.4,0.3v0.8H121.6z M116.9,17.1c0,1.4,0,1.4-0.1,2.1h0.9v-2.1H116.9z M120.9,21.4c1,0.1,1,0.1,1.5,0.1
		c0.2,0,0.2,0,0.2-0.2v-3.5c0-0.7,0-1-0.1-1.5c1.7,0.2,1.7,0.2,1.7,0.3c0,0.1-0.1,0.2-0.4,0.3v2.9c0,0.1,0,0.2,0,0.5
		c0,0.2,0,0.2,0,1.1c0,0.6-0.1,0.8-0.4,1c-0.2,0.1-0.7,0.3-1,0.3c-0.1,0-0.2,0-0.2-0.2c0-0.2-0.1-0.4-0.3-0.5
		c-0.2-0.1-0.4-0.2-1.1-0.4L120.9,21.4z"/>
	<path fill="#231815" d="M133.5,17.9c0.4-0.4,0.5-0.5,0.9-0.9c0.6,0.4,0.7,0.5,1.3,1c0.1,0.1,0.1,0.1,0.1,0.1c0,0.1-0.1,0.1-0.2,0.1
		h-5.7c-0.3,0.5-0.5,0.9-0.9,1.4c0.1,0.1,0.1,0.1,0.2,0.1h3.5c0.3-0.3,0.3-0.4,0.6-0.7c0.4,0.3,0.6,0.4,1,0.7
		c0.1,0.1,0.1,0.1,0.1,0.2c0,0.1-0.1,0.2-0.4,0.3v2.4c0,0.6,0,1.2,0,2.4c0,0.6-0.2,0.9-0.8,1.1c-0.2,0.1-0.5,0.1-0.7,0.1
		c-0.1,0-0.2,0-0.2-0.2c0-0.3-0.1-0.5-0.4-0.6c-0.2-0.1-0.4-0.2-1.2-0.4v-0.1c1.2,0,1.2,0,1.8,0.1c0.2,0,0.2,0,0.2-0.2v-1.6h-3.6V26
		c0,0.2-0.2,0.3-0.8,0.3c-0.4,0-0.5,0-0.5-0.2c0-1.2,0.1-2.4,0.1-3v-2.3c-0.7,0.7-1.3,1.2-2.3,1.8l-0.1-0.1c1.3-1.3,2.3-2.7,3-4.3
		h-2c-0.3,0-0.5,0-0.8,0.1l0-0.4c0.3,0.1,0.6,0.1,0.9,0.1h2.1c0.3-0.8,0.4-1.2,0.5-1.9c1.7,0.4,1.8,0.4,1.8,0.5
		c0,0.1-0.1,0.2-0.6,0.2c-0.2,0.5-0.3,0.7-0.4,1.1H133.5z M132.8,21.2v-1.4h-3.6v1.4H132.8z M129.2,22.9h3.6v-1.4h-3.6V22.9z"/>
	<path fill="#231815" d="M139.6,20.9c1.2,0.5,1.6,0.8,1.6,1.3c0,0.4-0.3,0.9-0.6,0.9c-0.1,0-0.2-0.1-0.3-0.4
		c-0.2-0.8-0.4-1.3-0.7-1.5V22l0,4c0,0.2-0.1,0.3-0.8,0.3c-0.4,0-0.4,0-0.4-0.2c0-1.5,0.1-2.5,0.1-3l0-0.9c-0.6,1.2-1.2,1.8-1.9,2.6
		l-0.1-0.1c0.8-1.4,1.3-2.7,1.8-4.4h-1c-0.2,0-0.3,0-0.5,0.1l-0.1-0.4c0.2,0.1,0.4,0.1,0.6,0.1h1.3v-2.4c0-0.5,0-0.8-0.1-1.5
		c1.4,0.1,1.7,0.1,1.7,0.3c0,0.1-0.1,0.2-0.4,0.3V20h0.4c0.2-0.3,0.3-0.4,0.6-0.7c0.4,0.3,0.5,0.4,0.8,0.8c0,0,0.1,0.1,0.1,0.1
		c0,0-0.1,0.1-0.1,0.1h-1.7V20.9z M136.9,16.8c0.8,0.7,1.3,1.4,1.3,1.9c0,0.4-0.4,0.9-0.7,0.9c-0.1,0-0.2,0-0.2-0.2
		c0-0.1,0-0.1,0-0.7C137.2,18.1,137.1,17.5,136.9,16.8L136.9,16.8z M139.8,19.5c0.3-0.9,0.6-1.8,0.6-2.7c0.5,0.2,1,0.4,1.2,0.5
		c0.1,0,0.1,0.1,0.1,0.1c0,0.1-0.1,0.1-0.4,0.2C140.6,18.7,140.5,18.9,139.8,19.5L139.8,19.5z M145.6,22.4c0.2-0.4,0.3-0.6,0.5-1
		c0.5,0.3,0.6,0.5,1,0.8c0.1,0,0.1,0.1,0.1,0.1s0,0.1-0.1,0.1l-1.6,0.3c0,2,0,2,0.1,3.3c0,0.2-0.2,0.3-0.8,0.3c-0.4,0-0.5,0-0.5-0.2
		c0-0.6,0-0.6,0-3.1l-2.9,0.6c-0.2,0-0.3,0.1-0.5,0.2l-0.2-0.4c0.1,0,0.1,0,0.2,0c0.1,0,0.2,0,0.5-0.1l2.9-0.6l0-1.2V20
		c0-2.4,0-3.2-0.1-3.9c1.4,0.1,1.5,0.1,1.6,0.2c0.1,0,0.1,0.1,0.1,0.1c0,0.1-0.1,0.2-0.5,0.3c0,2.4,0,2.4,0,2.9c0,0.7,0,1,0,2.9
		L145.6,22.4z M141.6,19.9c0.9,0.3,1.1,0.4,1.5,0.6c0.4,0.2,0.5,0.4,0.5,0.7c0,0.3-0.1,0.5-0.3,0.7c-0.1,0.1-0.3,0.3-0.4,0.3
		c-0.2,0-0.3-0.1-0.4-0.5C142.3,21.1,142,20.6,141.6,19.9L141.6,19.9z M141.9,17c1.4,0.5,1.9,0.9,1.9,1.5c0,0.4-0.4,0.9-0.7,0.9
		c-0.1,0-0.2,0-0.2-0.1c-0.1-0.1-0.1-0.1-0.2-0.4C142.5,18.2,142.3,17.7,141.9,17L141.9,17z"/>
	<path fill="#231815" d="M152.9,17.9c0.3-0.4,0.4-0.5,0.7-0.8c0.4,0.4,0.5,0.4,0.9,0.8c0.5-0.7,0.7-1,0.9-1.5
		c1.5,0.6,1.6,0.6,1.6,0.8s-0.1,0.2-0.6,0.2c-0.9,1.1-1.6,1.9-2.3,2.7h1.5l0.9-1c0.5,0.5,0.7,0.6,1.2,1.1c0,0,0.1,0.1,0.1,0.1
		c0,0,0,0.1-0.1,0.1h-3.8c-0.9,0.9-1.4,1.2-2.4,1.8V23c0.6-0.2,0.9-0.4,1.5-0.6c1-0.5,1.5-0.8,2-1.3c1.2,0.9,1.4,0.9,1.4,1.1
		c0,0.1-0.1,0.1-0.2,0.1c-0.1,0-0.3,0-0.4-0.1c-1.4,0.6-2.2,0.8-4.2,1.2v1.2c0,0.2,0,0.2,0.1,0.3c0.1,0.1,0.2,0.1,1.6,0.1
		c1.8,0,2,0,2.2-0.2c0.2-0.2,0.5-0.9,1-2.1l0.1,0l-0.1,1.8c0,0.1,0,0.1,0,0.1c0,0.1,0,0.1,0.3,0.2c0.2,0.1,0.3,0.2,0.3,0.4
		c0,0.4-0.3,0.6-0.8,0.7c-0.5,0.1-1.5,0.1-3.1,0.1c-1.7,0-2.1,0-2.4-0.2c-0.2-0.1-0.3-0.3-0.3-0.7c0-0.2,0-0.4,0-0.5
		c0-0.3,0-0.6,0-0.6v-1.1c-1.1,0.5-1.7,0.8-2.9,1.1l-0.1-0.1c1.2-0.6,1.9-1.1,2.9-1.7c0-0.3,0-0.5,0-0.8c0.4,0.1,0.6,0.2,0.9,0.2
		c0.7-0.5,0.7-0.5,1.4-1.1h-4.1c-0.3,0-0.5,0-0.7,0.1l-0.1-0.4c0.3,0.1,0.5,0.1,0.8,0.1h2.9v-1.9h-2.1c-0.3,0-0.4,0-0.6,0.1
		l-0.1-0.4c0.3,0.1,0.4,0.1,0.7,0.1h2.1v-0.7c0-0.4,0-0.7-0.1-1.2c0.4,0,0.6,0.1,0.8,0.1c0.8,0.1,0.9,0.1,0.9,0.2
		c0,0.1-0.1,0.2-0.5,0.3v1.3H152.9z M152.5,18.2V20h0.2c0.7-0.7,1.1-1.1,1.6-1.9H152.5z"/>
	<path fill="#231815" d="M159,26.1c1.4-1,2.1-1.8,2.8-3.2c0.6-1.2,1-2.4,1.2-3.9c0.1-0.6,0.1-1.4,0.1-1.9c0-0.2,0-0.3,0-0.6
		c0.4,0,0.7,0.1,0.9,0.1c0.8,0.1,1,0.1,1,0.3c0,0.1-0.1,0.2-0.5,0.3c0,0.2,0,0.3,0,0.4c0,0.7,0.2,1.7,0.4,2.6
		c0.5,1.5,1.2,2.6,2.4,3.5c0.7,0.5,1.2,0.7,2.1,1.1l0,0.1c-0.6,0.2-0.8,0.5-1.1,1.2c0,0.1-0.1,0.1-0.1,0.1c-0.2,0-1.2-0.8-1.7-1.4
		c-0.7-0.9-1.3-2.1-1.7-3.5c-0.2-0.9-0.3-1.6-0.4-2.9c-0.1,1.8-0.4,2.9-0.9,4c-0.7,1.4-1.7,2.5-3,3.3c-0.4,0.2-0.7,0.4-1.4,0.7
		L159,26.1z"/>
	<path fill="#231815" d="M172.4,20.9c0,1.9-0.7,3.5-1.5,3.5c-0.3,0-0.5-0.4-0.5-0.9c0-0.2,0-0.3,0.1-0.4c0.1-0.1,0.1-0.1,0.3-0.3
		c0.3-0.2,0.6-0.5,0.9-0.8c0.3-0.4,0.4-0.7,0.5-1.1L172.4,20.9z M171,18.7c0.5,0.5,0.8,0.7,1.5,0.7c0.4,0,1.1-0.1,1.8-0.2
		c0-1.1,0-1.5-0.1-1.7c-0.1-0.3-0.4-0.5-0.9-0.6c0.2-0.1,0.3-0.2,0.5-0.2c0.4,0,1.1,0.2,1.5,0.3c0.3,0.2,0.5,0.3,0.5,0.5
		c0,0.1,0,0.2-0.2,0.4c-0.1,0.3-0.2,0.5-0.2,1.1c1.2-0.2,1.5-0.4,1.8-0.6c0.1-0.1,0.2-0.1,0.3-0.1c0.2,0,0.5,0.1,0.8,0.3
		c0.2,0.1,0.3,0.3,0.3,0.5c0,0.2-0.1,0.3-0.3,0.3c-0.1,0.1-0.2,0.1-0.7,0.2c0,0-0.4,0-0.7,0.1c-0.1,0-0.6,0.1-1.6,0.2
		c0,0.5,0,0.6,0,0.8c0,0.9,0.1,2.1,0.1,3c0,0.2,0,0.3,0,0.4c0,0.9-0.4,1.5-0.9,1.5c-0.3,0-0.4-0.1-0.5-0.4c-0.1-0.3-0.2-0.5-0.5-0.7
		c-0.3-0.3-0.6-0.5-1.1-0.8l0-0.1c0.8,0.2,1.2,0.3,1.8,0.4c0-1.2,0.1-2.5,0.1-4c-0.7,0.1-1.1,0.1-1.4,0.1c-1.1,0-1.6-0.3-2-1.3
		L171,18.7z M176.7,20.7c1,0.5,1.4,0.7,1.9,1.2c0.4,0.4,0.5,0.7,0.5,1.1c0,0.6-0.3,1.1-0.7,1.1c-0.1,0-0.2-0.1-0.3-0.2
		c0-0.1,0-0.1-0.1-0.4C177.7,22.5,177.2,21.5,176.7,20.7L176.7,20.7z"/>
	<path fill="#231815" d="M181.7,20.4c0.2,0.2,0.5,0.2,1.1,0.2c0.4,0,2.5,0,4.4-0.1c0.2,0,0.9,0,1.2,0c1.1,0,1.4,0,1.6,0.2
		c0.1,0.1,0.1,0.2,0.1,0.3c0,0.3-0.2,0.5-0.7,0.5c-0.6,0.1-1.6,0.1-4.9,0.1c-0.5,0-0.6,0-1.4,0c-0.3,0-0.3,0-0.5,0.1
		c-0.2,0.1-0.3,0.1-0.4,0.1c-0.3,0-0.6-0.2-0.8-0.7c-0.3-0.4-0.4-0.8-0.4-1.1c0-0.2,0-0.2,0.1-0.4C181.5,20.2,181.6,20.3,181.7,20.4
		z"/>
	<path fill="#231815" d="M197.1,20.6c0.8,0.5,1.7,1.2,2.3,1.9c0.5,0.6,0.7,1,0.7,1.4c0,0.6-0.4,1.2-0.7,1.2c-0.2,0-0.3-0.1-0.4-0.5
		c-0.2-0.6-0.2-0.7-0.3-1c-1,0.3-1.4,0.4-3.8,1c-0.6,0.1-0.9,0.2-1.3,0.3c-0.1,0-0.1,0-0.3,0.2c-0.1,0.1-0.2,0.1-0.3,0.1
		c-0.3,0-0.5-0.2-0.8-0.7s-0.4-0.8-0.4-1.2c0-0.1,0-0.2,0.1-0.3c0.2,0.3,0.3,0.5,0.5,0.6c0.2,0.1,0.3,0.2,0.6,0.2c0.1,0,0.1,0,0.3,0
		c0.4-0.7,1-2.2,1.4-3.4c0.5-1.4,0.7-2.2,0.7-2.5c0-0.4-0.2-0.6-0.7-0.9c0.1-0.1,0.2-0.1,0.4-0.1c0.4,0,0.9,0.2,1.4,0.5
		c0.4,0.3,0.6,0.5,0.6,0.7c0,0.1-0.1,0.2-0.2,0.4c-0.2,0.3-0.2,0.3-1.2,2c-0.8,1.4-1.4,2.5-1.9,3.2c1.6-0.1,3.8-0.4,4.9-0.6
		C198,22,197.7,21.5,197.1,20.6L197.1,20.6z"/>
</g>
<g>
	<path fill="#231815" d="M295.5,26.1c0.7-0.8,1.2-1.6,1.7-2.6c0.3-0.8,0.6-1.8,0.6-2.3c0-0.3,0-0.4-0.2-0.5
		c-0.7,0.1-1.8,0.4-2.3,0.7c-0.2,0.1-0.3,0.1-0.5,0.1c-0.3,0-0.6-0.2-1-0.7c-0.2-0.3-0.3-0.5-0.3-0.7c0-0.1,0-0.1,0-0.2
		c0.3,0.4,0.6,0.6,1.1,0.6c0.3,0,0.4,0,2.1-0.3c1-0.2,1.5-0.2,3.3-0.4c0.4,0,0.7-0.1,1-0.2c0.1-0.1,0.2-0.1,0.3-0.1
		c0.2,0,0.4,0.1,0.7,0.2c0.4,0.2,0.6,0.4,0.6,0.7c0,0.2-0.2,0.4-0.5,0.4c0,0-0.1,0-0.2,0c-0.6-0.1-1.4-0.2-2.1-0.2
		c-0.6,0-1,0-1.6,0.1c0.6,0.4,0.7,0.5,0.7,0.8c0,0.5-0.5,1.7-1,2.5C297.5,24.8,296.7,25.5,295.5,26.1L295.5,26.1z M295.4,17.1
		c0.4,0.4,0.8,0.6,1.3,0.6c0.4,0,1-0.1,1.5-0.3c0.4-0.1,0.6-0.2,1-0.4c0.2-0.1,0.2-0.1,0.4-0.1c0.2,0,0.3,0.1,0.6,0.2
		c0.3,0.2,0.4,0.4,0.4,0.5c0,0.2-0.2,0.3-0.6,0.4c-0.7,0.2-2,0.3-2.7,0.3C296.3,18.5,295.7,18.1,295.4,17.1L295.4,17.1z M300.7,16.4
		c1.1,0.4,1.8,1,1.8,1.6c0,0.3-0.1,0.5-0.4,0.5c-0.2,0-0.2,0-0.5-0.6c-0.3-0.5-0.6-0.9-1.1-1.3L300.7,16.4z M301.8,15.7
		c0.6,0.2,1,0.3,1.3,0.5c0.4,0.3,0.6,0.5,0.6,0.9c0,0.3-0.1,0.4-0.3,0.4c-0.1,0-0.2-0.1-0.4-0.3c-0.3-0.6-0.7-0.9-1.3-1.4
		L301.8,15.7z"/>
	<path fill="#231815" d="M303.1,23c1.3-0.8,2.8-1.9,4.1-3.3c1.2-1.2,1.8-2.1,1.8-2.4c0-0.2-0.3-0.5-0.7-0.7c0.1,0,0.2,0,0.4,0
		c0.3,0,0.7,0.1,1.1,0.4c0.5,0.3,0.8,0.6,0.8,0.9c0,0.2-0.1,0.3-0.4,0.5c0,0,0,0-0.7,0.7c-0.8,0.7-0.8,0.7-1.6,1.4
		c0.4,0.2,0.7,0.5,0.8,0.6c0.1,0.2,0.1,0.3,0.1,1.1c0,0.5,0,0.6,0.1,2.7c0,0.2,0,0.3,0,0.4c0,0.5-0.1,0.7-0.5,0.7
		c-0.4,0-1-0.7-1-1.1c0-0.1,0-0.2,0.1-0.4c0.1-0.5,0.2-1.6,0.2-2.8c0-0.6,0-0.7-0.2-0.9c-0.9,0.7-1.7,1.2-2.4,1.6
		c-0.6,0.3-1.4,0.7-2.1,0.9L303.1,23z"/>
	<path fill="#231815" d="M315.9,25.9c1-0.6,1.7-1.4,2.1-2.3c0.4-0.9,0.5-1.9,0.6-3.6c-0.6,0-1.3,0.1-2.2,0.3c0,0.1,0,0.1,0,0.1v0.5
		c0,0.4,0,1.2,0,1.6c0,0,0,0.1,0,0.1c0,0.6-0.1,0.8-0.5,0.8c-0.2,0-0.4-0.1-0.6-0.4c-0.1-0.2-0.2-0.5-0.2-0.6c0-0.1,0-0.2,0.1-0.3
		c0.1-0.3,0.2-0.7,0.2-1.5c-0.5,0.1-0.8,0.2-1.2,0.4c-0.2,0.1-0.3,0.1-0.4,0.1c-0.3,0-0.7-0.4-1-0.9c-0.1-0.2-0.2-0.4-0.2-0.6
		c0,0,0-0.1,0-0.1c0.3,0.4,0.6,0.6,1.1,0.6c0.3,0,0.9-0.1,1.7-0.2c0-0.6-0.1-1.3-0.1-1.6c-0.1-0.3-0.3-0.5-0.8-0.8
		c0.1-0.1,0.2-0.1,0.4-0.1c0.4,0,0.9,0.2,1.3,0.5c0.3,0.2,0.4,0.3,0.4,0.5c0,0.1,0,0.1-0.1,0.3c-0.1,0.2-0.1,0.6-0.1,0.9
		c0.4-0.1,0.7-0.1,1.1-0.2c0.1,0,0.1,0,0.8-0.1c0.2,0,0.2,0,0.3,0c0-0.2,0-0.5,0-0.9c0-0.8-0.1-1.1-0.2-1.3
		c-0.2-0.2-0.4-0.3-0.8-0.4c0.2-0.1,0.3-0.2,0.5-0.2c0.4,0,1,0.1,1.4,0.3c0.3,0.2,0.5,0.3,0.5,0.5c0,0.1,0,0.1-0.1,0.3
		c-0.2,0.3-0.2,0.6-0.2,1.5c0.6,0,0.9-0.1,1.2-0.2c0.2-0.1,0.2-0.1,0.3-0.1c0.2,0,0.5,0.1,0.8,0.3c0.3,0.2,0.4,0.3,0.4,0.5
		c0,0.2-0.1,0.3-0.4,0.3c0,0-0.1,0-0.2,0c-0.5-0.1-1.2-0.1-1.8-0.1c-0.1,0-0.2,0-0.4,0c0,1.3-0.1,1.7-0.2,2.3
		c-0.2,1.4-0.8,2.2-1.9,3C317,25.6,316.6,25.8,315.9,25.9L315.9,25.9z"/>
	<path fill="#231815" d="M324.4,20.4c0.2,0.2,0.5,0.2,1.1,0.2c0.4,0,2.5,0,4.4-0.1c0.2,0,0.9,0,1.2,0c1.1,0,1.4,0,1.6,0.2
		c0.1,0.1,0.1,0.2,0.1,0.3c0,0.3-0.2,0.5-0.7,0.5c-0.6,0.1-1.6,0.1-4.9,0.1c-0.5,0-0.6,0-1.4,0c-0.3,0-0.3,0-0.5,0.1
		c-0.2,0.1-0.3,0.1-0.4,0.1c-0.3,0-0.6-0.2-0.8-0.7c-0.3-0.4-0.4-0.8-0.4-1.1c0-0.2,0-0.2,0.1-0.4C324.1,20.2,324.2,20.3,324.4,20.4
		z"/>
	<path fill="#231815" d="M335.2,17.2c0.4,0,0.9,0.1,1.3,0.3c0.4,0.2,0.6,0.4,0.6,0.7c0,0.1,0,0.2-0.2,0.5c-0.1,0.3-0.2,0.7-0.3,1.5
		c0.2,0.1,0.3,0.1,0.5,0.1c0.4,0,1.3-0.2,1.9-0.4c0.5-0.2,0.7-0.3,1.1-0.5c0.1-0.1,0.2-0.1,0.3-0.1c0.2,0,0.5,0.1,0.7,0.2
		c0.3,0.2,0.4,0.3,0.4,0.5c0,0.2-0.2,0.4-0.7,0.5c-1.1,0.3-2.5,0.5-3.2,0.5c-0.5,0-0.8-0.1-1.1-0.4c0,0.7-0.1,1.6-0.1,1.9
		c0,0.8,0.1,1.1,0.3,1.3c0.2,0.2,0.5,0.3,1.2,0.3c0.5,0,1.4-0.1,1.9-0.2c0.3-0.1,0.4-0.1,0.7-0.2c0.2-0.1,0.3-0.1,0.4-0.1
		c0.2,0,0.4,0.1,0.6,0.2c0.3,0.2,0.4,0.4,0.4,0.6c0,0.2-0.1,0.4-0.5,0.5c-0.4,0.1-1.6,0.2-2.6,0.2c-0.9,0-1.7-0.1-2.1-0.3
		c-0.7-0.3-1-0.8-1.1-1.7c-0.1-0.4-0.1-1-0.1-2.3c0-0.2,0-0.3,0-0.5c0-0.4,0-0.7,0-0.8c0-0.4,0-1,0-1.2c0-0.6-0.3-0.8-0.9-1
		C334.8,17.3,334.9,17.2,335.2,17.2z M340.6,17.1c0.5,0.2,0.9,0.3,1.2,0.5c0.5,0.3,0.7,0.7,0.7,1c0,0.3-0.1,0.4-0.3,0.4
		c-0.1,0-0.2-0.1-0.4-0.3c-0.3-0.6-0.8-1.1-1.3-1.5L340.6,17.1z M341.8,16.3c0.5,0.1,1,0.3,1.3,0.5c0.4,0.3,0.6,0.5,0.6,0.8
		c0,0.3-0.1,0.4-0.3,0.4c-0.1,0-0.2-0.1-0.4-0.3c-0.4-0.5-0.8-0.9-1.3-1.3L341.8,16.3z"/>
	<path fill="#231815" d="M344.3,25.2c1-0.6,2.3-1.7,3.3-2.8c1.1-1.3,2.2-2.9,2.7-4.1c-0.9,0.1-2.4,0.5-2.9,0.9
		c-0.2,0.1-0.3,0.1-0.4,0.1c-0.3,0-0.5-0.2-0.8-0.6c-0.2-0.4-0.4-0.7-0.4-0.9c0-0.1,0-0.2,0.1-0.3c0.3,0.5,0.6,0.7,1.2,0.7
		c0.3,0,1.4-0.2,2.4-0.4c0.7-0.1,0.8-0.2,1.1-0.4c0.1-0.1,0.2-0.1,0.3-0.1c0.2,0,0.5,0.2,0.8,0.5c0.2,0.2,0.4,0.4,0.4,0.5
		c0,0.1,0,0.2-0.2,0.3c-0.2,0.2-0.3,0.3-0.6,0.8c-0.5,0.8-0.8,1.2-1.4,1.9c1.4,0.6,2.4,1.2,2.8,1.6c0.3,0.3,0.5,0.7,0.5,1.1
		c0,0.6-0.3,1-0.6,1c-0.2,0-0.3-0.1-0.5-0.4c-0.5-1.2-1.3-2.1-2.5-3c-0.9,1.1-1.7,1.7-2.6,2.4c-0.8,0.5-1.4,0.8-2.5,1.2L344.3,25.2z
		"/>
</g>
<g>
	<path fill="#5A65B3" d="M97.1,61.7c2.4-1.4,4.2-3.4,5.2-5.7c1-2.2,1.4-4.7,1.4-8.8c-1.6,0.1-3.3,0.3-5.5,0.7c0,0.2,0,0.3,0,0.3v1.2
		c0,0.9,0,2.9,0.1,3.8c0,0.1,0,0.1,0,0.2c0,1.4-0.4,2.1-1.1,2.1c-0.5,0-0.9-0.4-1.4-1c-0.4-0.5-0.6-1.2-0.6-1.6
		c0-0.2,0.1-0.4,0.2-0.8c0.3-0.8,0.4-1.8,0.5-3.6c-1.2,0.2-1.9,0.5-2.9,1c-0.4,0.2-0.8,0.3-1.1,0.3c-0.7,0-1.7-0.9-2.4-2.1
		c-0.3-0.5-0.5-1.1-0.5-1.4c0-0.1,0-0.2,0.1-0.3c0.8,1,1.5,1.4,2.6,1.4c0.7,0,2.3-0.2,4.2-0.6c0-1.6-0.1-3.2-0.3-3.8
		c-0.3-0.8-0.8-1.4-1.9-1.9c0.3-0.2,0.5-0.3,0.9-0.3c0.9,0,2.3,0.5,3.3,1.2c0.7,0.5,0.9,0.8,0.9,1.3c0,0.3,0,0.4-0.2,0.8
		c-0.2,0.5-0.3,1.4-0.3,2.3c0.9-0.2,1.6-0.3,2.8-0.4c0.3,0,0.3,0,1.9-0.2c0.4,0,0.4,0,0.8-0.1c0-0.4,0-1.1,0-2.1
		c0-1.9-0.1-2.7-0.5-3.2c-0.4-0.5-0.9-0.8-2-1.1c0.4-0.3,0.7-0.4,1.3-0.4c1.1,0,2.4,0.3,3.4,0.8c0.8,0.4,1.2,0.8,1.2,1.3
		c0,0.2,0,0.3-0.2,0.7c-0.4,0.8-0.5,1.6-0.6,3.7c1.5-0.1,2.2-0.2,3-0.6c0.4-0.2,0.5-0.2,0.7-0.2c0.5,0,1.2,0.3,1.9,0.7
		c0.7,0.4,1,0.8,1,1.3c0,0.5-0.4,0.8-0.9,0.8c-0.1,0-0.2,0-0.4,0c-1.3-0.1-2.8-0.2-4.5-0.2c-0.2,0-0.5,0-0.9,0
		c-0.1,3.1-0.2,4.3-0.4,5.6c-0.5,3.3-1.9,5.5-4.7,7.4c-1.3,0.9-2.3,1.4-3.9,1.9L97.1,61.7z"/>
	<path fill="#5A65B3" d="M116.3,41.6c3,0.5,4.7,1,5.9,1.8c0.9,0.5,1.3,1.3,1.3,2.3c0,1.3-0.6,2.3-1.5,2.3c-0.5,0-0.7-0.2-1.1-0.9
		c-1.3-2.4-2.7-3.8-4.8-5.1L116.3,41.6z M136.9,43.2c-1.5,3.1-3.4,5.7-6.1,8.4c-2.4,2.4-4.4,4-7.9,6.2c-0.7,0.5-1.2,0.8-1.5,1.2
		c-0.4,0.5-0.7,0.7-1.1,0.7c-0.7,0-1.7-0.8-2.7-2c-0.9-1.1-1.3-2.1-1.3-3c0-0.2,0-0.4,0.1-0.7c0.7,1.2,1.6,2,2.4,2
		c1.1,0,4.7-1.9,7.9-4.2c4-2.9,7.5-5.9,9.8-8.7L136.9,43.2z"/>
	<path fill="#5A65B3" d="M145.6,50.2c2.2,0.9,3.9,1.7,5.4,2.7c3.3-3.4,6.6-7.3,6.6-7.9c0-0.2-0.1-0.2-0.5-0.2c-1.2,0-4.9,0.6-8,1.3
		c-2.6,0.6-4,1-5.3,1.7c-0.3,0.2-0.6,0.2-0.8,0.2c-0.7,0-1.5-0.7-2.4-1.8c-0.7-0.9-1-1.9-1-2.5c0-0.3,0.1-0.5,0.2-0.7
		c0.8,1.4,1.6,1.9,3.1,1.9c1.1,0,3.6-0.3,8.2-0.9c5-0.7,5-0.7,5.4-0.8c0.5-0.1,0.5-0.1,1.1-0.4c0.3-0.2,0.6-0.3,0.9-0.3
		c0.6,0,1.4,0.5,2.4,1.5c1,1,1.4,1.7,1.4,2.2c0,0.4-0.2,0.7-0.5,0.8c-0.2,0.1-0.2,0.1-0.7,0.2c-0.4,0.1-0.8,0.4-4,2.7
		c-2.8,2.1-3.6,2.6-5,3.5c0.7,0.5,1.5,1.2,1.9,1.8c0.5,0.6,0.7,1.1,0.7,1.9c0,1.4-0.7,2.5-1.6,2.5c-0.5,0-0.8-0.3-1.2-1.3
		c-0.5-1.2-1.8-3.2-2.9-4.7c-1-1.2-1.9-2.1-3.3-3.3L145.6,50.2z"/>
	<path fill="#5A65B3" d="M167.6,40.4c1,0,2.8,0.6,3.6,1.2c0.4,0.3,0.7,0.7,0.7,1.1c0,0,0,0,0,0.1c0,0.2,0,0.3-0.2,0.9
		c-0.1,0.5-0.2,1.7-0.2,3.4c0,0.4,0,1.2,0.1,2.4c0,0.7,0,1.3,0,1.6c0,0.8,0,1.1-0.1,1.5c-0.1,0.6-0.5,1-1,1c-0.5,0-1-0.4-1.5-1.2
		c-0.4-0.7-0.7-1.5-0.7-1.9c0-0.2,0-0.2,0.2-0.7c0.3-0.8,0.5-2.4,0.5-4.4c0-1.9-0.1-2.8-0.5-3.4c-0.4-0.6-0.7-0.8-1.7-1.3
		C167,40.4,167.1,40.4,167.6,40.4z M170.6,61.9c2.8-1.8,4.7-3.7,5.9-6c1.3-2.6,1.6-4.8,1.6-11c0-3.1-0.1-4-0.5-4.5
		c-0.3-0.5-1.1-1-2.1-1.3c0.4-0.3,0.7-0.4,1.2-0.4c0.9,0,2.2,0.3,3.2,0.8c1.2,0.5,1.7,1,1.7,1.6c0,0.2,0,0.3-0.2,0.7
		c-0.3,0.7-0.4,1.8-0.5,5.4c-0.1,3.9-0.2,5.2-0.7,6.7c-1.2,3.9-4.5,6.8-9.5,8.3L170.6,61.9z"/>
	<path fill="#5A65B3" d="M189,41.6c3,0.5,4.7,1,5.9,1.8c0.9,0.5,1.3,1.3,1.3,2.3c0,1.3-0.6,2.3-1.5,2.3c-0.5,0-0.7-0.2-1.1-0.9
		c-1.3-2.4-2.7-3.8-4.8-5.1L189,41.6z M209.6,43.2c-1.5,3.1-3.4,5.7-6.1,8.4c-2.4,2.4-4.4,4-7.9,6.2c-0.7,0.5-1.2,0.8-1.5,1.2
		c-0.4,0.5-0.7,0.7-1.1,0.7c-0.7,0-1.7-0.8-2.7-2c-0.9-1.1-1.3-2.1-1.3-3c0-0.2,0-0.4,0.1-0.7c0.7,1.2,1.6,2,2.4,2
		c1.1,0,4.7-1.9,7.9-4.2c4-2.9,7.5-5.9,9.8-8.7L209.6,43.2z"/>
	<path fill="#5A65B3" d="M217.8,61.2c0,0.6-0.4,0.7-2.3,0.7c-1,0-1.1-0.1-1.1-0.7c0.2-4.8,0.2-7.8,0.2-13.9c0-5.6,0-6.9-0.2-9.2
		c1.6,0.7,2.1,1,3.6,1.8h10.3c0.7-0.8,1-1,1.7-1.8c1.1,0.8,1.4,1,2.4,1.8c0.3,0.2,0.4,0.4,0.4,0.5c0,0.2-0.2,0.4-1,0.9l0,4.3
		c0,8.1,0,9.9,0.2,15.2c0,0.3-0.1,0.5-0.2,0.6c-0.2,0.2-1.1,0.3-2,0.3c-0.9,0-1.1-0.1-1.1-0.5c0,0,0-0.1,0-0.1v-1.6h-10.9V61.2z
		 M228.6,40.5h-10.9V49h10.9V40.5z M217.8,49.6v9.4h10.9v-9.4H217.8z"/>
	<path fill="#5A65B3" d="M257.2,42.8c0.7-0.8,0.9-1,1.5-1.7c1.1,0.7,1.4,0.9,2.3,1.7c0.2,0.2,0.4,0.3,0.4,0.4c0,0.2,0,0.2-1,0.8v9.6
		c0,1.5,0,1.5,0.1,5.6c-0.1,1.2-0.5,1.8-1.5,2.3c-0.7,0.3-1.7,0.5-2.6,0.5c-0.4,0-0.4-0.1-0.5-0.5c-0.1-0.7-0.3-1.2-0.7-1.5
		c-0.3-0.2-0.9-0.5-1.7-0.7c-0.2-0.1-0.2-0.1-1.9-0.5v-0.3c3.2,0.2,3.4,0.2,5.4,0.2c0.4,0,0.5-0.1,0.5-0.5V43.4H242v13.3l0,4.6
		c-0.1,0.7-0.2,0.8-1.7,0.8c-0.3,0-0.5,0-0.7,0c0,0-0.1,0-0.1,0c-0.5,0-0.7-0.2-0.7-0.6c0.1-2.6,0.1-4.6,0.1-10.5
		c0-7.4,0-8.5-0.2-10.1c1.6,0.7,2.1,0.9,3.7,1.8h3.2c0.5-1.2,1.1-3.4,1.5-5.6c4.6,1.1,4.7,1.2,4.7,1.5c0,0.3-0.3,0.4-1.5,0.6
		c-1.4,1.5-3,3-3.6,3.4H257.2z M251.8,47.2c0.6-0.7,0.8-0.8,1.4-1.5c0.9,0.6,1.2,0.8,2.1,1.5c0.2,0.2,0.3,0.3,0.3,0.4
		c0,0.2-0.2,0.4-0.7,0.8c0,5.3,0,5.6,0.1,7.5c0,0.3-0.1,0.4-0.3,0.5c-0.2,0.1-1.2,0.2-2.1,0.2c-0.4,0-0.6-0.1-0.6-0.5v-1.4h-4.6v1.7
		c0,0.5-0.3,0.7-1.5,0.7c-0.1,0-0.2,0-0.2,0c-0.2,0-0.4,0-0.5,0c0,0,0,0-0.1,0c-0.4,0-0.5-0.2-0.5-0.5c0,0,0-0.1,0-0.1
		c0.1-2.2,0.1-4.1,0.1-6.8c0-1.5,0-1.7-0.1-4c1.5,0.6,1.9,0.8,3.3,1.5H251.8z M247.3,54.1h4.6v-6.4h-4.6V54.1z"/>
</g>
<g>
	<path fill="#5A65B3" d="M305.8,54.1c1,1.5,1.9,2.3,3.7,3.1c2.2,1,4.6,1.5,8,1.5v0.3c-0.9,0.4-1.3,0.7-1.6,1.3
		c-0.2,0.4-0.5,0.9-0.6,1.3c-0.1,0.4-0.2,0.5-0.5,0.5c-0.7,0-2.8-0.8-4-1.5c-2.5-1.5-4.4-3.7-5.5-6.5c-0.7,2.5-2.1,4.4-4.3,5.8
		c-2.2,1.4-4.3,2-8.5,2.5l-0.1-0.4c3.4-1,5.5-2.2,7.4-3.9c1.2-1.1,2-2.5,2.5-4.1h-6.9c-0.8,0-1.5,0.1-2.1,0.2l-0.2-0.9
		c0.9,0.2,1.5,0.2,2.4,0.2h7.1c0.2-0.9,0.3-1.7,0.3-2.4c0-0.1,0-0.4,0-0.7c3.6,0.3,4.2,0.4,4.2,0.8c0,0.3-0.3,0.5-1.1,0.6
		c-0.1,0.8-0.2,1.1-0.3,1.7h6c0.8-0.9,1.1-1.2,1.9-2.2c1.3,0.9,1.7,1.2,2.9,2.3c0.1,0.1,0.2,0.2,0.2,0.3c0,0.1-0.1,0.2-0.4,0.2
		H305.8z M305.8,41.6c0.9-1.5,1.5-3,1.9-4.5c0.9,0.2,1.6,0.5,2.1,0.6c1.8,0.5,2.1,0.7,2.1,0.9c0,0.3-0.3,0.4-1.3,0.5
		c-1.5,1.2-2.1,1.6-3.5,2.5h4.4c0.8-0.9,1-1.2,1.8-2c1.2,0.9,1.6,1.1,2.7,2.1c0.2,0.1,0.2,0.2,0.2,0.3c0,0.1-0.1,0.2-0.4,0.2h-10.1
		v3.2h4c0.8-0.9,1.1-1.1,1.9-2c1.2,0.9,1.5,1.2,2.7,2.1c0.1,0.1,0.2,0.2,0.2,0.3c0,0.1-0.1,0.2-0.4,0.2h-8.4v3.3h6.2
		c0.8-0.9,1-1.2,1.8-2.1c1.3,0.9,1.7,1.2,2.8,2.1c0.2,0.1,0.2,0.2,0.2,0.3c0,0.1-0.2,0.2-0.4,0.2h-21.6c-0.7,0-1.4,0.1-2.2,0.2
		l-0.2-1c0.9,0.2,1.5,0.2,2.3,0.2h7.9V46h-5.6c-0.7,0-1.3,0.1-2,0.2l-0.2-1c0.8,0.2,1.4,0.2,2.1,0.2h5.6v-3.2h-7.1
		c-0.6,0-1.1,0-2,0.2l-0.2-1c0.8,0.2,1.4,0.2,2.2,0.2h4.4c-0.2-0.3-0.2-0.3-0.6-1.4c-0.5-1.2-0.9-1.9-1.8-2.7l0.2-0.2
		c3.6,1,4.7,1.7,4.7,2.9c0,0.5-0.2,1-0.7,1.4H305.8z"/>
	<path fill="#5A65B3" d="M340.1,53.2c-0.2,0.3-0.3,0.5-0.4,0.7c-1,1.9-1.1,2.1-1.7,2.8c-2.3,3-5.5,4.7-8.8,4.7c-2.3,0-4-0.9-5-2.4
		c-0.8-1.2-1.1-2.9-1.1-5.8c0-1.7,0-2.4,0.4-8.7c0-0.8,0.1-1.6,0.1-2.3c0-1.9-0.4-2.6-2.2-3.3c0.4-0.2,0.5-0.3,0.9-0.3
		c1,0,2.3,0.4,3.4,1c1.2,0.6,1.7,1.3,1.7,2c0,0.4-0.1,0.5-0.3,1.1c-0.8,1.8-1.8,8.4-1.8,12.1c0,2.6,1.2,3.8,3.7,3.8
		c2.3,0,4.9-0.8,7.2-2.3c1.4-0.9,2-1.4,3.5-3.1L340.1,53.2z"/>
	<path fill="#5A65B3" d="M344.9,42.4c1.2,0.9,2.3,1.2,3.8,1.2c1.2,0,3.1-0.3,4.6-0.8c-0.7-1.1-1.6-2.3-2.2-2.7
		c-0.5-0.4-1.3-0.6-2.2-0.6c-0.1,0-0.2,0-0.4,0c0.3-0.6,0.6-0.8,1.5-1c0.5-0.1,1.1-0.2,1.8-0.2c1.1,0,2,0.2,2.3,0.5
		c0.3,0.2,0.3,0.4,0.4,1.2c0,0.5,0.2,1,0.9,2.2c2.2-0.8,2.8-1.2,3.6-2c0.2-0.2,0.5-0.3,1-0.3c1.1,0,1.8,0.4,1.8,1
		c0,0.8-1.2,1.4-5.6,2.9c0.2,0.4,0.2,0.4,0.5,0.8c0.1,0.2,0.5,0.9,1.1,1.9c1.7-0.6,2.4-0.9,3.1-1.4c-0.5-0.6-0.8-0.8-1.6-1.5
		l0.2-0.2c1,0.5,1.7,0.7,2.4,0.7c0.2,0,0.2,0,0.8-0.1c0.1,0,0.2,0,0.3,0c0.7,0,1.1,0.4,1.1,1c0,1-1.4,1.9-5.2,3.3
		c0.7,1.2,0.8,1.4,1.1,1.9c0.6,1,0.6,1,1.2,2c0.5,0.8,0.7,1.3,0.7,1.8c0,0.7-0.2,1.5-0.5,1.9c-0.2,0.3-0.5,0.5-0.9,0.5
		c-0.4,0-0.6-0.1-1-0.5c-0.9-0.9-1.2-1.1-2-1.4c-1.4-0.7-3-1.1-4.5-1.1c-2.6,0-4.5,1.1-4.5,2.7c0,1.6,1.7,2.5,4.8,2.5
		c1.1,0,1.6-0.1,3-0.4c0.2-0.1,0.5-0.1,0.7-0.1c1.1,0,2.4,1.1,2.4,2.1c0,0.5-0.3,0.8-0.9,1c-0.8,0.2-2.1,0.4-3.7,0.4
		c-3.1,0-5.3-0.5-6.8-1.6c-1-0.8-1.6-1.9-1.6-3.1c0-2.6,3-4.5,7.3-4.5c1.5,0,3.1,0.2,5.2,0.5c-0.3-1-0.8-2.3-1.8-4.1
		c-2,0.7-4.2,1-6,1c-2.3,0-3.6-0.8-4.6-3l0.2-0.2c1,1.2,2,1.6,3.4,1.6c1.7,0,3.7-0.4,6.1-1.1c-0.5-0.9-1-1.7-1.7-2.7
		c-1.9,0.5-3.5,0.8-4.9,0.8c-1.9,0-3.6-0.9-4.8-2.6L344.9,42.4z"/>
	<path fill="#5A65B3" d="M367.8,44c3.6,1,4.8,1.7,4.8,3c0,1.1-0.9,2.2-1.7,2.2c-0.2,0-0.3-0.1-0.4-0.2c-0.2-0.2-0.2-0.2-0.6-1.2
		c-0.5-1.2-1.1-2.2-2.3-3.5L367.8,44z M367.8,53.8c1,0.2,1.5,0.3,1.8,0.3c0.4,0,0.5-0.2,1.3-1.7c1.7-3.3,2.3-4.8,4.2-9.4l0.3,0.1
		l-3.3,11.1c-0.1,0.4-0.2,0.9-0.2,1.1c0,0.2,0.1,0.4,0.4,1.3c0.5,1.1,0.6,1.8,0.6,2.6c0,0.9-0.2,1.5-0.8,2.1s-1.2,0.8-1.9,0.8
		c-0.5,0-0.8-0.3-0.8-0.9c0-0.2,0-0.3,0.2-2.2c0.1-0.8,0.1-1.5,0.1-2c0-0.9-0.2-1.6-0.5-2c-0.2-0.3-0.3-0.4-1.7-0.9L367.8,53.8z
		 M369.4,37.9c2.1,0.5,3,0.8,3.7,1.2c1.1,0.6,1.5,1.1,1.5,1.9c0,1-0.8,2.1-1.7,2.1c-0.4,0-0.4-0.1-1.1-1.4c-0.6-1.3-1.2-2.2-2.6-3.6
		L369.4,37.9z M377.6,58.9c-0.1,0.5-0.4,0.6-1.2,0.6c-1.4,0-1.8-0.1-1.8-0.5c0-0.1,0-0.2,0.1-0.3c1-3.7,1.1-4.4,1.8-7.8h-1
		c-0.6,0-0.9,0-1.4,0.1l-0.2-0.9c0.6,0.2,1.1,0.2,1.7,0.2h1.1c0.4-2.2,0.6-3.3,0.8-5.3c-1,1-1.4,1.4-2.6,2.3l-0.2-0.2
		c2.2-3.5,3.5-6.5,4-9.6c4.3,1,4.3,1,4.3,1.3c0,0.3-0.2,0.4-1.3,0.7c-0.6,1-0.8,1.4-1.2,2h7.6c0.9-1,1.2-1.4,2-2.3
		c1.4,1,1.8,1.4,3.1,2.5c0.1,0.1,0.1,0.2,0.1,0.2c0,0.1-0.1,0.1-0.3,0.1h-13c-0.6,0.8-0.7,0.9-1.3,1.6c0.6,0.4,0.9,0.5,1.7,1.1h7.4
		c0.6-0.7,0.8-0.8,1.5-1.4c0.9,0.7,1.2,0.9,2.1,1.7c0.2,0.2,0.3,0.3,0.3,0.4c0,0.2-0.2,0.4-0.9,0.6c-0.1,0.8-0.2,2.3-0.4,4.4h0.1
		c0.5-0.7,1-1.3,1.4-1.9c0.9,0.9,1.1,1.2,1.9,2.2c0.1,0.1,0.1,0.1,0.1,0.2c0,0.1-0.1,0.1-0.2,0.1h-3.3c-0.4,3.9-0.4,4.4-0.7,5.9h0.2
		c0.6-0.8,0.8-1.1,1.5-1.9c0.9,0.9,1.2,1.2,2.1,2.2c0.1,0.1,0.1,0.1,0.1,0.2c0,0.1-0.1,0.1-0.2,0.1h-3.7c-0.4,2.5-0.7,3.4-1.3,4
		c-0.5,0.5-1.2,0.8-2.1,1c-0.4,0.1-1,0.1-1.2,0.1c-0.2,0-0.3-0.1-0.4-0.5c-0.1-1.3-0.7-1.7-4-2.6l0.1-0.3c2.3,0.2,3.9,0.4,4.5,0.4
		c1,0,1.1-0.1,1.5-2.1H378L377.6,58.9z M381,56.8c0.6-3.4,0.6-3.4,1-5.9h-2.7c-0.4,2.6-0.6,3.5-1.1,5.9H381z M382,50.3
		c0.3-2,0.3-2.1,0.6-5.1h-2.5c-0.2,1.5-0.2,1.5-0.8,5.1H382z M384.6,50.9c-0.1,1-0.2,1.7-0.3,2.2c-0.2,1.8-0.2,1.8-0.5,3.7h3
		c0.3-1.8,0.5-3.3,0.7-5.9H384.6z M387.5,50.3c0.3-3.9,0.3-3.9,0.4-5.1h-2.7c-0.1,0.9-0.3,2.6-0.6,5.1H387.5z"/>
</g>
</svg>
